<?xml version="1.0" encoding="UTF-8"?> <svg xmlns="http://www.w3.org/2000/svg" width="609" height="560" viewBox="0 0 609 560" fill="none"><g clip-path="url(#clip0_128_1877)"><path d="M139.918 332.854C216.377 332.854 278.359 270.926 278.359 194.534C278.359 118.143 216.377 56.2151 139.918 56.2151C63.4582 56.2151 1.47559 118.143 1.47559 194.534C1.47559 270.926 63.4582 332.854 139.918 332.854Z" fill="#0041ED" stroke="#0A003C" stroke-width="2" stroke-miterlimit="10" stroke-linecap="round"></path><path d="M107.543 182.666C90.0566 185.792 81.38 175.988 77.3368 168.248C74.6512 163.102 70.5195 158.886 65.3843 156.158C56.5159 151.44 42.4091 141.386 40.8154 121.954C39.3545 104.16 45.2275 92.6894 49.0936 86.2467C52.1038 81.2341 53.1958 75.3516 52.5613 69.5428C51.971 64.2206 51.912 59.1048 52.1481 54.3575C52.9597 38.4203 64.9121 25.2547 80.7012 22.8664C94.0702 20.8466 106.923 18.3402 116.013 10.4969C118.374 8.4624 120.661 6.85541 122.83 5.55802C132.835 -0.353945 145.392 0.221033 155.116 6.59003C156.784 7.68102 158.525 8.9784 160.281 10.4969C169.371 18.3255 182.223 20.8318 195.592 22.8664C211.381 25.2547 223.349 38.4203 224.145 54.3575C224.382 59.09 224.323 64.2206 223.732 69.5428C223.098 75.3516 224.19 81.2341 227.2 86.2467C231.066 92.6894 236.939 104.16 235.478 121.954C233.885 141.386 219.778 151.44 210.909 156.158C205.774 158.886 201.642 163.102 198.957 168.248C194.914 175.988 186.237 185.792 168.751 182.666H107.543Z" fill="#FF600F" stroke="#0A003C" stroke-width="2" stroke-miterlimit="10" stroke-linecap="round"></path><path d="M98.8365 148.58C98.8365 148.58 94.6015 100.194 136.435 100.194C178.269 100.194 175.273 149.199 175.273 149.199" fill="#0041ED"></path><path d="M98.8365 148.58C98.8365 148.58 94.6015 100.194 136.435 100.194C178.269 100.194 175.273 149.199 175.273 149.199" stroke="#0A003C" stroke-width="2" stroke-miterlimit="10" stroke-linecap="round"></path><path d="M256.742 259.021C242.605 240.975 222.434 228.768 202.395 217.607C189.439 210.398 175.244 202.142 169.356 188.962C167.954 185.836 168.057 182.165 169.784 179.202C170.241 178.435 170.773 177.742 171.392 177.315C173.886 175.575 183.271 171.845 183.596 162.262C183.965 151.323 175.258 149.2 175.258 149.2C175.258 149.2 168.53 124.077 139.15 124.077C109.771 124.077 98.807 148.58 98.807 148.58C98.807 148.58 86.8545 147.593 86.4856 158.783C86.1167 169.972 102.053 173.702 102.053 173.702C103.367 177.816 105.536 181.605 108.251 184.804C111.202 188.298 112.265 193.119 110.523 197.336C109.328 200.225 107.454 202.879 105.196 205.046C100.711 209.381 94.9261 212.079 89.2007 214.57C73.7363 221.293 57.7112 227.087 43.5453 236.243C33.7472 242.567 25.0264 250.499 17.6926 259.566C40.9925 303.161 86.9726 332.839 139.903 332.839C192.833 332.839 236.083 304.901 259.988 263.399C258.94 261.91 257.863 260.436 256.742 258.991V259.021Z" fill="#0A003C" stroke="#0A003C" stroke-width="2" stroke-linecap="round" stroke-linejoin="round"></path><path d="M116.013 193.606C116.013 193.606 124.424 202.171 138.427 200.564C155.854 198.574 162.332 188.283 162.332 188.283" stroke="#0041ED" stroke-width="2" stroke-miterlimit="10" stroke-linecap="round"></path><path d="M256.742 259.02C242.605 240.975 222.434 228.768 202.395 217.607C199.149 215.794 195.828 213.921 192.567 211.931C186.65 223.667 170.669 246.902 136.996 246.902C107.985 246.902 90.4107 230.109 81.4538 217.873C68.4536 223.328 55.3502 228.62 43.5453 236.257C33.7472 242.582 25.0264 250.514 17.6926 259.581C40.9925 303.176 86.9726 332.854 139.903 332.854C192.833 332.854 236.083 304.916 259.988 263.414C258.94 261.925 257.863 260.451 256.742 259.006V259.02Z" fill="#F4F7FA" stroke="#0A003C" stroke-width="2" stroke-miterlimit="10" stroke-linecap="round"></path><path d="M255.974 312.302C280.904 312.302 301.113 292.11 301.113 267.203C301.113 242.295 280.904 222.104 255.974 222.104C231.045 222.104 210.836 242.295 210.836 267.203C210.836 292.11 231.045 312.302 255.974 312.302Z" fill="#FF600F" stroke="#0A003C" stroke-width="2" stroke-miterlimit="10" stroke-linecap="round"></path><path d="M236.187 258.932L255.974 279.882L326.465 212.388" stroke="#0A003C" stroke-width="2" stroke-miterlimit="10" stroke-linecap="round"></path><path d="M445.812 461.295C512.093 461.295 565.824 407.612 565.824 341.39C565.824 275.168 512.093 221.485 445.812 221.485C379.531 221.485 325.8 275.168 325.8 341.39C325.8 407.612 379.531 461.295 445.812 461.295Z" fill="#0041ED" stroke="#0A003C" stroke-width="2" stroke-miterlimit="10" stroke-linecap="round"></path><path d="M407.8 313.968C407.8 313.968 393.118 278.054 392.528 276.653C389.208 268.707 385.548 260.082 387.422 251.9C388.175 248.568 389.901 245.192 392.97 243.673C396.04 242.155 400.791 243.437 402.326 246.74C403.344 239.412 405.38 234.842 408.627 229.402C410.604 226.085 413.26 223.696 416.669 221.868C420.077 220.04 424.608 218.905 428.164 220.423C432.856 222.443 435.055 225.126 436.693 229.947C439.674 224.935 442.212 222.104 446.063 219.436C449.767 216.87 453.175 215.882 456.687 215.838C460.716 215.794 464.036 216.841 466.707 219.126C471.753 223.46 473.598 230.64 470.75 237.82C477.331 233.043 487.085 233.471 492.84 238.203C498.595 242.936 499.244 250.44 498.462 257.856C497.813 264.019 494.596 268.781 492.117 274.471C489.638 280.147 480.105 311.462 479.515 317.624C478.91 323.787 464.139 293.8 462.354 292.517C461.099 291.618 447.332 326.839 445.812 326.5C439.216 325.025 415.178 313.024 407.8 313.939V313.968Z" fill="#FF600F" stroke="#0A003C" stroke-width="2" stroke-miterlimit="10" stroke-linecap="round"></path><path d="M547.083 397.281C534.836 381.639 517.35 371.053 499.982 361.382C488.752 355.131 476.446 347.98 471.34 336.554C470.13 333.842 470.204 330.657 471.709 328.092C472.107 327.414 472.565 326.839 473.111 326.455C475.265 324.952 483.411 321.708 483.691 313.408C484.016 303.913 476.461 302.085 476.461 302.085L480.43 279.808C476.829 283.126 433.845 286.738 408.066 279.808L410.191 301.554C410.191 301.554 399.832 300.685 399.507 310.4C399.183 320.101 412.994 323.345 412.994 323.345C414.131 326.912 416.019 330.185 418.366 332.972C420.933 335.994 421.848 340.181 420.328 343.837C419.295 346.344 417.657 348.644 415.71 350.516C411.814 354.275 406.797 356.605 401.839 358.772C388.425 364.596 374.54 369.623 362.263 377.57C353.778 383.054 346.208 389.939 339.863 397.782C360.064 435.583 399.92 461.31 445.797 461.31C491.674 461.31 529.169 437.087 549.887 401.114C548.972 399.817 548.042 398.549 547.069 397.296L547.083 397.281Z" fill="#F4F7FA" stroke="#0A003C" stroke-width="2" stroke-miterlimit="10" stroke-linecap="round"></path><path d="M425.094 344.073C425.094 344.073 432.768 352.654 444.897 351.283C460.007 349.558 467.135 339.65 467.135 339.65" stroke="#0041ED" stroke-width="2" stroke-miterlimit="10" stroke-linecap="round"></path><path d="M547.083 397.281C534.836 381.639 517.35 371.053 499.982 361.382C497.163 359.819 494.286 358.197 491.467 356.458C486.332 366.63 469.082 393.197 442.831 389.688C416.58 386.18 402.931 372.233 395.154 361.618C383.881 366.335 372.533 370.935 362.292 377.555C353.808 383.039 346.238 389.924 339.893 397.768C360.094 435.569 399.95 461.295 445.827 461.295C491.704 461.295 529.199 437.073 549.917 401.099C549.002 399.802 548.072 398.534 547.098 397.281H547.083Z" fill="#0A003C" stroke="#0A003C" stroke-width="2" stroke-linecap="round" stroke-linejoin="round"></path><path d="M546.419 443.471C568.024 443.471 585.538 425.972 585.538 404.387C585.538 382.802 568.024 365.303 546.419 365.303C524.815 365.303 507.301 382.802 507.301 404.387C507.301 425.972 524.815 443.471 546.419 443.471Z" fill="#FF600F" stroke="#0A003C" stroke-width="2" stroke-miterlimit="10" stroke-linecap="round"></path><path d="M529.273 397.207L546.419 415.371L607.524 356.855" stroke="#0A003C" stroke-width="2" stroke-miterlimit="10" stroke-linecap="round"></path><path d="M437.549 304.296C440.883 301.687 444.395 301.54 448.099 304.296" stroke="#0A003C" stroke-width="2" stroke-miterlimit="10" stroke-linecap="round"></path><path d="M457.41 317.875C462.928 317.875 467.4 313.406 467.4 307.894C467.4 302.381 462.928 297.913 457.41 297.913C451.893 297.913 447.42 302.381 447.42 307.894C447.42 313.406 451.893 317.875 457.41 317.875Z" stroke="#0A003C" stroke-width="2" stroke-miterlimit="10" stroke-linecap="round"></path><path d="M428.237 317.875C433.755 317.875 438.227 313.406 438.227 307.894C438.227 302.381 433.755 297.913 428.237 297.913C422.72 297.913 418.248 302.381 418.248 307.894C418.248 313.406 422.72 317.875 428.237 317.875Z" stroke="#0A003C" stroke-width="2" stroke-miterlimit="10" stroke-linecap="round"></path><path d="M352.494 558.526C394.742 558.526 428.99 524.308 428.99 482.098C428.99 439.888 394.742 405.67 352.494 405.67C310.247 405.67 275.999 439.888 275.999 482.098C275.999 524.308 310.247 558.526 352.494 558.526Z" fill="#0041ED" stroke="#0A003C" stroke-width="2" stroke-miterlimit="10" stroke-linecap="round"></path><path d="M352.494 421.076C352.494 421.076 322.761 414.117 319.544 444.444C317.065 467.782 312.579 468.136 304.876 475.994C296.746 484.294 294.163 496.516 298.339 503.357C302.515 510.198 290.932 516.95 290.932 516.95H407.358C407.358 516.95 409.482 502.546 403.831 497.18C398.179 491.799 391.347 491.061 391.819 482.112C392.292 473.163 395.7 462.224 386.168 454.985C377.786 448.631 383.512 428.86 372.031 421.622C361.835 415.194 352.494 421.091 352.494 421.091V421.076Z" fill="#0A003C" stroke="#0A003C" stroke-width="2" stroke-linecap="round" stroke-linejoin="round"></path><path d="M417.038 517.732C409.232 507.751 398.091 501.013 387.009 494.85C379.852 490.87 372.017 486.314 368.756 479.031C367.988 477.306 368.033 475.272 368.992 473.635C369.243 473.208 369.538 472.839 369.877 472.588C371.249 471.63 376.443 469.566 376.621 464.273C376.827 458.229 372.017 457.064 372.017 457.064C372.017 457.064 368.136 433.151 351.904 433.151C344.467 446.523 329.785 456.725 329.785 456.725C329.785 456.725 323.189 456.179 322.982 462.357C322.775 468.549 331.585 470.598 331.585 470.598C332.308 472.868 333.518 474.962 335.008 476.731C336.646 478.662 337.222 481.316 336.263 483.66C335.599 485.253 334.566 486.727 333.326 487.921C330.847 490.309 327.645 491.798 324.487 493.184C315.943 496.9 307.09 500.099 299.269 505.156C293.853 508.65 289.043 513.029 284.985 518.041C297.852 542.131 323.262 558.526 352.494 558.526C381.726 558.526 405.631 543.09 418.838 520.164C418.262 519.339 417.657 518.528 417.038 517.732Z" fill="#0041ED" stroke="#0A003C" stroke-width="2" stroke-miterlimit="10" stroke-linecap="round"></path><path d="M339.288 481.596C339.288 481.596 343.936 486.329 351.668 485.444C361.304 484.339 364.875 478.663 364.875 478.663" stroke="#0A003C" stroke-width="2" stroke-miterlimit="10" stroke-linecap="round"></path><path d="M417.038 517.732C409.232 507.751 398.091 501.013 387.009 494.85C385.209 493.848 383.379 492.816 381.579 491.71C378.303 498.197 369.479 534.362 350.886 534.362C334.861 534.362 325.151 501.765 320.193 494.998C313.007 498.006 305.776 500.939 299.254 505.156C293.839 508.65 289.028 513.029 284.97 518.041C297.838 542.131 323.248 558.526 352.48 558.526C381.711 558.526 405.616 543.09 418.823 520.164C418.248 519.339 417.643 518.528 417.023 517.732H417.038Z" fill="#F4F7FA" stroke="#0A003C" stroke-width="2" stroke-miterlimit="10" stroke-linecap="round"></path><path d="M409.114 552.717C422.886 552.717 434.051 541.562 434.051 527.801C434.051 514.04 422.886 502.885 409.114 502.885C395.341 502.885 384.176 514.04 384.176 527.801C384.176 541.562 395.341 552.717 409.114 552.717Z" fill="#FF600F" stroke="#0A003C" stroke-width="2" stroke-miterlimit="10" stroke-linecap="round"></path><path d="M398.179 523.231L409.114 534.804L448.055 497.519" stroke="#0A003C" stroke-width="2" stroke-miterlimit="10" stroke-linecap="round"></path></g><defs><clipPath id="clip0_128_1877"><rect width="609" height="560" fill="white"></rect></clipPath></defs></svg> 