<?xml version="1.0" encoding="UTF-8"?> <svg xmlns="http://www.w3.org/2000/svg" xmlns:xlink="http://www.w3.org/1999/xlink" version="1.1" id="Layer_1" x="0px" y="0px" width="800px" height="800px" viewBox="0 0 800 800" style="enable-background:new 0 0 800 800;" xml:space="preserve"> <style type="text/css"> .st0{fill:none;stroke:#FF600F;stroke-width:2;stroke-linecap:round;stroke-linejoin:round;stroke-miterlimit:10;} .st1{fill:none;stroke:#FF600F;stroke-width:31.4048;stroke-miterlimit:10;} .st2{fill:none;} .st3{fill:#FF600F;} .st4{fill:#0041ED;} .st5{fill:#FFFFFF;} .st6{fill:none;stroke:#0041ED;stroke-width:5;stroke-miterlimit:10;} .st7{fill:none;stroke:#FF600F;stroke-width:5;stroke-linecap:round;stroke-linejoin:round;stroke-miterlimit:10;} .st8{fill:#FF600F;stroke:#FF600F;stroke-width:5;stroke-linecap:round;stroke-linejoin:round;stroke-miterlimit:10;} .st9{fill:none;stroke:#FF600F;stroke-width:2;stroke-linecap:round;stroke-miterlimit:10;stroke-dasharray:6,12;} .st10{fill:none;stroke:#FFFFFF;stroke-width:5;stroke-linecap:round;stroke-miterlimit:10;} .st11{fill:none;stroke:#0041ED;stroke-width:5;stroke-linecap:round;stroke-linejoin:round;stroke-miterlimit:10;} .st12{fill:#0041ED;stroke:#0041ED;stroke-width:5;stroke-linecap:round;stroke-linejoin:round;stroke-miterlimit:10;} .st13{fill:none;stroke:#FFFFFF;stroke-width:2;stroke-linecap:round;stroke-miterlimit:10;} .st14{fill:none;stroke:#0041ED;stroke-width:2;stroke-linecap:round;stroke-linejoin:round;stroke-miterlimit:10;} </style> <path class="st0" d="M187.1,239.9c-4.2,16.9-6.4,34.5-6.4,52.7c0,119.8,97.1,216.9,216.9,216.9c22.7,0,44.5-3.5,65-9.9"></path> <path class="st0" d="M612.5,321.8c1.3-9.6,2-19.3,2-29.2c0-119.8-97.1-216.9-216.9-216.9c-18.4,0-36.3,2.3-53.4,6.6"></path> <g> <ellipse class="st1" cx="644.1" cy="636.2" rx="138.4" ry="137.8"></ellipse> <g> <path class="st2" d="M621.4,584.8c1.3,5.3,3.8,9.9,7.2,13c2.6,2.4,5.4,3.6,8.2,3.5c-0.3-0.6-0.6-1.2-0.9-1.9 c-1.7-4.3,0.4-10.7,1.1-12.6c0.9-2.6,1.8-4.6,2.6-6.5c0.6-1.5,1.2-2.9,1.8-4.5l-20.6,4.4C620.8,581.7,621,583.3,621.4,584.8z"></path> <path class="st2" d="M642.9,570.6c0-0.1,0-0.2,0.1-0.3c-3.1-5-7.4-8.1-11.7-8.1c-0.7,0-1.3,0.1-2,0.2c-5.1,1.2-8.4,7.1-8.7,14.4 l21.9-4.6C642.6,571.7,642.8,571.2,642.9,570.6z"></path> <path class="st3" d="M627.6,635c-0.2-1.6-1-3-2.2-3.5c-1.4-0.6-3.3-0.2-5.7,1.3c-2.3,1.4-4.4,3-6.3,4.9l6.5,13.8 c2.9-3.3,5.2-7.1,6.7-11.2C627.2,638.7,627.8,636.8,627.6,635z"></path> <path class="st4" d="M613.5,637.6c1.9-1.9,4-3.5,6.3-4.9c2.4-1.4,4.3-1.9,5.7-1.3c1.2,0.5,2,1.9,2.2,3.5c0.2,1.8-0.4,3.7-0.9,5.2 c-1.5,4.1-3.8,7.9-6.7,11.2l1.5,3.2c3.6-3.8,6.4-8.4,8.2-13.3c0.7-1.8,1.4-4.2,1.1-6.7c-0.3-2.8-1.9-5.2-4.1-6.2 c-2.4-1.1-5.3-0.6-8.7,1.5c-2.2,1.3-4.2,2.8-6.1,4.6L613.5,637.6z"></path> <path class="st3" d="M630.6,660.9c0-0.3-0.1-0.5-0.1-0.8c-0.2-1.2-1.2-2.1-2.3-2.3c-1.3-0.1-3.2,0-4.9,0.4l4.9,10.5 c1.4-1.6,2.1-3.2,2.4-5.4C630.7,662.8,630.7,661.6,630.6,660.9z"></path> <path class="st4" d="M623.3,658.3c1.7-0.4,3.6-0.6,4.9-0.4c1.2,0.1,2.1,1.1,2.3,2.3c0,0.3,0.1,0.5,0.1,0.8c0.1,0.7,0.1,1.9,0,2.5 c-0.3,2.2-1,3.8-2.4,5.4l1.5,3.2c2.4-2.4,3.6-4.8,4.1-8.1c0.1-0.9,0.1-2.3,0-3.3c0-0.3-0.1-0.7-0.1-1c-0.4-2.6-2.6-4.7-5.2-5 c-1.7-0.2-4.3,0-6.7,0.7L623.3,658.3z"></path> <path class="st4" d="M636.8,601.3c-2.7,0.1-5.5-1.2-8.2-3.5c-3.4-3.1-5.9-7.7-7.2-13c-0.4-1.6-0.6-3.1-0.7-4.6l-1.4,0.3 c-0.1,0-0.2,0-0.3,0c-0.8,0-1.4-0.5-1.6-1.3c-0.2-0.9,0.4-1.8,1.3-1.9l2-0.4c0.3-7.3,3.6-13.1,8.7-14.4c0.7-0.2,1.3-0.2,2-0.2 c4.3,0,8.6,3.1,11.7,8.1c0.4-1.4,0.6-2.9,0.7-4.5c-4.2-5.1-9.9-7.8-15.2-6.6c-8.7,2.1-13.3,13.9-10.3,26.3 c1.4,5.9,4.3,11.1,8.2,14.6c3.2,2.9,6.7,4.4,10.2,4.4c0.8,0,1.7-0.1,2.5-0.3C638.2,603.5,637.4,602.5,636.8,601.3z"></path> <path class="st3" d="M625.5,716.6c0.3-0.1,0.6-0.1,0.9-0.2c-9.1-6.2-12.4-14.7-11.8-29.1l-20,3.9c0.2,0.5,0.3,1,0.5,1.6 c2.1,9.1,0.5,18.4-1.5,26.3c-0.2,0.7-0.8,1.3-1.6,1.3c-0.1,0-0.3,0-0.4,0c-0.9-0.2-1.4-1.1-1.2-2c0.1-0.4,0.2-0.8,0.3-1.2 l-25.8-30.6c-0.4,0.3-0.9,0.5-1.4,0.4c-0.9-0.2-1.5-1.1-1.3-1.9c0.4-2,0.9-3.9,1.4-5.9l-18.9-39.9c-1.3,10.4-2.8,34.1,5.6,53.9 c7.5,17.5,16.2,31.6,26.3,45.5c5,3.3,10.3,6.2,15.9,8.8C601,726.6,616.3,719.2,625.5,716.6z"></path> <path class="st4" d="M576.7,738.5c-10.1-13.9-18.9-28-26.3-45.5c-8.4-19.8-6.9-43.5-5.6-53.9l-2.5-5.4c-0.8,4.6-5.7,35.2,5.2,60.6 c6.2,14.5,13.3,26.7,21.2,38.4C571.2,734.7,573.9,736.6,576.7,738.5z"></path> <path class="st4" d="M614.5,687.3c-0.6,14.5,2.7,23,11.8,29.1c1.7-0.4,3.5-0.6,5.3-0.6c-10.9-5.8-14.6-13.6-13.8-29.1L614.5,687.3 z"></path> <path class="st5" d="M533.8,598.4c-0.8-1.6-0.8-3.3-0.1-4.7c0.6-1.2,1.7-2,3-2.3l38.7-7.3c3.2-0.6,6.4,1,7.8,3.9l39.1,82.8 c0.6,1.3,0.6,2.7-0.1,4c-0.6,1.3-1.8,2.1-3.2,2.4l-28.2,5.8c0.4,0.9,0.8,1.8,1.3,2.7c0.4,0.7,0.8,1.5,1.1,2.3l33.6-6.5 c0.8-0.2,1.5-0.7,1.9-1.4s0.4-1.6,0-2.4l-44.5-94.2c-1.3-2.8-4.1-4.6-7.2-4.6c-0.5,0-1,0-1.5,0.1l-47.5,9.2 c-0.8,0.2-1.5,0.7-1.9,1.4c-0.4,0.8-0.4,1.6,0,2.4l38.8,82.1c0.6-1.9,1.3-3.9,2-5.8L533.8,598.4z"></path> <path class="st4" d="M544.7,639.1l18.9,39.9c0.4-1.6,0.9-3.2,1.4-4.8l-38.8-82.1c-0.4-0.8-0.3-1.6,0-2.4c0.4-0.8,1.1-1.3,1.9-1.4 l47.5-9.2c0.5-0.1,1-0.1,1.5-0.1c3,0,5.8,1.7,7.2,4.6l44.5,94.2c0.4,0.8,0.3,1.6,0,2.4c-0.4,0.8-1.1,1.3-1.9,1.4l-33.6,6.5 c0.4,0.9,0.8,1.9,1.2,3.1l20-3.9l3.3-0.6l9.7-1.9c1.8-0.4,3.4-1.5,4.2-3.2s0.9-3.6,0.1-5.3l-2.1-4.3l-1.5-3.2l-4.9-10.5l-1.4-3 l-0.3-0.7l-1.5-3.2l-6.5-13.8l-1.5-3.1l-24.7-52.4c-2.2-4.6-7.2-7.2-12.3-6.2l-47.5,9.2c-1.8,0.4-3.4,1.5-4.2,3.2 s-0.9,3.6-0.1,5.3l18.9,40.1L544.7,639.1z"></path> <path class="st4" d="M618.4,674.1c0.4-0.1,0.7-0.3,0.9-0.7c0.1-0.2,0.2-0.6,0-1.1l0,0l-39.1-82.8c-0.6-1.4-2-2.2-3.5-2.2 c-0.2,0-0.5,0-0.7,0.1l-38.7,7.3c-0.3,0.1-0.6,0.3-0.7,0.5c-0.2,0.5-0.2,1.1,0.1,1.8l31.7,67.3c2.1-5.1,4.5-10,7.2-14.8 c1.4-2.4,3.7-5.7,7.3-5.7l0,0c2.3,0,4.6,1.5,5.9,3.8c1.1,1.9,1.3,4.1,1.5,6.1c0.2,2.8,0.2,5.6,0,8.4l-0.2,2.4 c-0.4,4.2-0.9,10.5-0.6,13.9c0,0.5,0.1,1,0.2,1.5L618.4,674.1z"></path> <path class="st4" d="M619.1,677.3c1.4-0.3,2.5-1.1,3.2-2.4c0.6-1.3,0.7-2.7,0.1-4l-39.1-82.8c-1.4-2.9-4.6-4.6-7.8-3.9l-38.7,7.3 c-1.3,0.3-2.4,1.1-3,2.3c-0.7,1.4-0.7,3.1,0.1,4.7l33.1,70.1c0.5-1.4,1.1-2.8,1.6-4.2L536.8,597c-0.3-0.7-0.4-1.3-0.1-1.8 c0.1-0.3,0.4-0.5,0.7-0.5l38.7-7.3c0.2,0,0.5-0.1,0.7-0.1c1.5,0,2.8,0.8,3.5,2.2l39.1,82.8l0,0c0.2,0.5,0.1,0.9,0,1.1 c-0.2,0.3-0.5,0.6-0.9,0.7L590,680c0.2,1.2,0.5,2.2,0.9,3.1L619.1,677.3z"></path> <path class="st3" d="M646.1,571.5l36.7-7.8c-0.1-0.3-0.2-0.6-0.3-0.9c-2-5.6-5.5-9.5-10.4-11.6c-6.7-3-15.8-2.4-25.7,1.5 c0.1,0.3,0.1,0.6,0.1,0.9C647.6,560.7,647.4,566.5,646.1,571.5z"></path> <path class="st3" d="M645.9,574.9L645,575c-0.8,2.4-1.6,4.4-2.5,6.5c-0.8,1.9-1.6,3.9-2.5,6.4c-1.1,3.1-2.1,7.7-1.1,10.3 c0.5,1.2,2.3,5.2,6.5,5.4h1.5l0.1,1.5c0.4,13.4,6.8,29.3,23.3,33.9c9.3,2.6,20.5-1.5,26.3-6.7l1.2-1.1l8.8,9.6 c5.2-6.5,27.1-31.4,59.4-39.4v-8c-7.3,2.6-31.2,11-34.7,11.6c-0.5,0.1-1,0.1-1.5,0.1c-2.4,0-4.9-1-6.6-2.8 c-2.8-2.8-3-7.8-0.4-10.8c1.2-1.4,2.6-2.2,4-3c0.4-0.2,0.8-0.5,1.2-0.7c7.1-4.4,10.5-14.3,7.4-22c-1-2.5-2.4-4.5-4.2-5.8 c-1.3-0.9-2.8-1.6-4.7-2c-7.2-1.6-15.5,1.9-20.2,8.5c-4.1,5.7-5.5,13.7-3.9,22.5l0.4,2.1l-2.1-0.1c-5.7-0.4-15.7-5.2-16.8-20.8 c-0.1-1.1-0.2-2.3-0.4-3.3L645.9,574.9z"></path> <path class="st4" d="M642.9,570.6c-0.2,0.6-0.3,1.1-0.5,1.6l2.7-0.6l0.9-0.2c1.3-4.9,1.5-10.8,0.5-17.9c0-0.3-0.1-0.6-0.1-0.9 c-0.4,0.2-0.8,0.3-1.2,0.5l-1.7,0.7L643,552l0,0c0.1,0.7,0.3,1.3,0.4,2c0.6,4.4,0.8,8.4,0.4,11.8c-0.2,1.6-0.4,3.1-0.7,4.5 C643,570.5,643,570.6,642.9,570.6z"></path> <path class="st4" d="M706.6,640.9l-8.8-9.6l-1.2,1.1c-5.8,5.2-17,9.3-26.3,6.7c-16.5-4.6-22.8-20.5-23.3-33.9l-0.1-1.5h-1.5 c-4.2-0.1-6.1-4.1-6.5-5.4c-1-2.6,0-7.2,1.1-10.3c0.9-2.5,1.7-4.5,2.5-6.4c0.9-2.1,1.7-4.1,2.5-6.5l-3.7,0.8 c-0.6,1.5-1.1,2.9-1.8,4.5c-0.8,1.9-1.6,4-2.6,6.5c-0.7,1.9-2.7,8.2-1.1,12.6c0.3,0.7,0.6,1.3,0.9,1.9c0.7,1.2,1.4,2.2,2.3,3 c1.4,1.2,3,2.1,4.7,2.4c1,17.8,10.7,31.4,25.6,35.5c9.9,2.8,21.3-1,28.1-6.3l7.1,7.7l0.8-1.1C705.4,642.4,705.8,641.9,706.6,640.9 z"></path> <path class="st4" d="M766,601.5c0.3-0.1,0.6-0.1,0.9-0.2v-8.1c-0.3,0.1-0.5,0.2-0.9,0.3V601.5z"></path> <path class="st5" d="M730.5,639.2c15.7-12.1,31-15.8,35.6-16.6v-17.7c-31.7,8.1-52.9,33-57.2,38.5l7.5,8.2 C721.1,646.4,726.2,642.5,730.5,639.2z"></path> <path class="st4" d="M706.6,640.9c-0.8,1-1.2,1.5-1.2,1.6l-0.8,1.1l0,0l9.6,10.4c0.7-0.9,1.4-1.7,2.2-2.5l-7.5-8.2 c4.3-5.4,25.5-30.4,57.2-38.5v17.7c0.3-0.1,0.6-0.1,0.9-0.2v-21.1c-0.3,0.1-0.6,0.1-0.9,0.2C733.7,609.5,711.9,634.4,706.6,640.9z "></path> <path class="st5" d="M658,730.3l-17.2-9c-4.5-2.3-9.6-2.9-14.4-1.5c-8.6,2.4-22.8,9.3-30.9,28.8c8.9,3.8,18.4,6.7,28.3,8.3 C635.2,737.3,650,731.8,658,730.3z"></path> <path class="st4" d="M626.3,716.4c-0.3,0.1-0.6,0.1-0.9,0.2c-9.2,2.6-24.4,10-33,30.6c1,0.5,2,0.9,3,1.3 c8-19.5,22.3-26.4,30.9-28.8c4.8-1.4,9.9-0.8,14.4,1.5l17.2,9c3.2-0.6,5.3-0.6,5.6-0.6h0.4l32.8,17.1l0,0l-54.5-28.4 c-3.4-1.7-7-2.6-10.7-2.6C629.8,715.8,628.1,716,626.3,716.4z"></path> <path class="st4" d="M627.3,757.4c0.4,0.1,0.7,0.1,1.1,0.1h31.3c11.7-1.5,22.8-4.6,33.2-9.1L663,732.9 C660.2,733,641.3,734.2,627.3,757.4z"></path> <path class="st4" d="M663.6,729.7c-0.3,0-2.4,0-5.6,0.6c-8,1.5-22.8,7-34.2,26.6c1.2,0.2,2.3,0.4,3.5,0.5 c14-23.2,32.9-24.5,35.8-24.5l29.9,15.5c1.3-0.6,2.5-1.1,3.8-1.7L664,729.6L663.6,729.7z"></path> <path class="st4" d="M644.1,758.6c5.3,0,10.5-0.4,15.7-1h-31.3C633.5,758.2,638.8,758.6,644.1,758.6z"></path> <path class="st4" d="M766,625.9c-5,1-19.3,4.8-33.6,15.9c-9,6.9-20.1,15.6-25.4,31.7c-5.6,16,0.5,37,5.9,55.6l1.1,3.7 c0.3,1.1,0.6,2.2,1,3.3c27.7-19.6,46.9-50.2,51-85.4V625.9z"></path> <path class="st4" d="M730.5,639.2c-4.3,3.3-9.4,7.2-14.1,12.4c-0.7,0.8-1.5,1.6-2.2,2.5c-4.1,4.9-7.8,10.9-10.2,18.4 c-5.9,16.9,0.3,38.5,5.9,57.6l1.1,3.7c0.4,1.5,0.9,2.9,1.3,4.3c1-0.6,1.9-1.3,2.8-2c-0.3-1.1-0.6-2.2-1-3.3l-1.1-3.7 c-5.4-18.6-11.5-39.7-5.9-55.6c5.2-16.1,16.4-24.8,25.4-31.7c14.3-11.1,28.6-14.8,33.6-15.9v24.7c0.5-4.7,0.9-9.4,0.9-14.2v-14 c-0.2,0-0.5,0.1-0.9,0.2C761.4,623.4,746.1,627,730.5,639.2z"></path> <path class="st4" d="M645.9,574.9c-0.1,0-0.2,0-0.3,0c-0.8,0-1.4-0.5-1.6-1.3c-0.2-0.9,0.4-1.8,1.3-1.9l-2.7,0.6l-21.9,4.6l-2,0.4 c-0.9,0.2-1.4,1.1-1.3,1.9c0.2,0.8,0.8,1.3,1.6,1.3c0.1,0,0.2,0,0.3,0l1.4-0.3l20.6-4.4l3.7-0.8L645.9,574.9z"></path> <path class="st4" d="M707.1,558.5c0.7-0.2,1.5,0.2,1.8,0.9c4.2-3.2,9.2-5,14.2-5c1.4,0,2.9,0.2,4.3,0.5c2.3,0.5,4.2,1.4,5.9,2.5 c2.3,1.7,4.1,4.2,5.4,7.2c3.6,9.3-0.2,20.7-8.8,26c-0.4,0.3-0.9,0.5-1.3,0.8c-1.2,0.7-2.4,1.4-3.2,2.3c-1.5,1.8-1.4,4.7,0.3,6.4 c1.4,1.4,3.4,2.1,5.2,1.8c3.2-0.6,28.8-9.5,35.2-11.8v-1.4c-5.3-5.2-8-13.3-7.1-22c0.8-7.8,3-16.4,6.2-23.7 c0.8-1.9,1.8-3.8,2.6-5.6c2.4-4.8,4.6-9.3,5.1-14.6c1.2-11.1-0.9-18.5-6.4-23c-6.7-5.5-18.1-5.7-25.4-0.4l-4.6,3.3l0.2-0.4 c-9.2,7.8-14.3,18.2-14.4,18.3c-0.3,0.6-0.9,0.9-1.5,0.9c-0.2,0-0.5-0.1-0.7-0.2c-0.8-0.4-1.1-1.4-0.8-2.2 c0.3-0.6,7.1-14.4,19.6-22.7c2.7-7.7,0.9-15.5-4.9-20.4c-3-2.5-6.7-3.8-11.4-3.7c-4.3,0.1-8.3,1.4-12.3,4.2 c-4.6,3.2-7.6,6.6-11.2,12.6l-0.5,0.8c0,0.2,0,0.4-0.1,0.7c-4.5,10.4-3.8,21-3.8,21.1c0.1,0.9-0.6,1.7-1.5,1.8h-0.1 c-0.8,0-1.6-0.7-1.6-1.5c0-0.5-0.8-11.6,4.1-22.7c0.1-0.3,0.3-0.5,0.6-0.6c-2-5.6-4.5-8.5-9.6-10.7c-3.3-1.4-8.2-0.8-12.9,1.7 c-4.1,2.2-7.1,5-9.4,8.8c-3.9,6.5-6.4,12-7.6,20.9l-0.5,3.4c0.5,6.6,2,10.7,2,10.7c0.3,0.8-0.1,1.8-0.9,2.1 c-0.2,0.1-0.4,0.1-0.6,0.1c-0.7,0-1.3-0.4-1.5-1.1c-0.1-0.2-2.2-5.7-2.3-14.4c0-0.4,0.1-0.8,0.4-1c-0.7-1.1-1.9-2-3.4-2.5 c-1.9-0.7-4.1-0.6-5.6,0.1c-3.9,1.9-5.4,6.5-6,9.1c-2.2,9.6,2,19.7,6.1,29.5l0.1,0.3c0.4,1,0.9,2.6,1.3,3.8 c10.6-4.1,20.4-4.5,27.8-1.2c5.7,2.5,9.8,7,12.1,13.5c0.2,0.4,0.3,0.9,0.4,1.3c0,0,0.1,0,0.1-0.1L707.1,558.5z"></path> <path class="st4" d="M686.8,566.2c0.2,1.2,0.4,2.5,0.5,3.8c0.9,12.9,8,16.4,11.7,17.4c-1.2-8.8,0.5-16.8,4.8-22.8 c0.6-0.9,1.3-1.7,2.1-2.5L686.8,566.2L686.8,566.2z"></path> <path class="st4" d="M768.5,497.2c-6.9-5.6-17.4-6.6-25.7-2.7c1.7-7.9-0.8-15.9-6.7-21c-3.6-3.1-8.1-4.6-13.5-4.5 c-5,0.1-9.5,1.6-14.1,4.8c-4.2,2.9-7.2,6-10.4,10.8c-2.2-4.7-5.3-7.6-10.3-9.7c-4.3-1.8-10.1-1.1-15.7,1.9 c-4.6,2.5-8.1,5.7-10.6,10c-3.5,5.9-6,11.1-7.4,18.6c-0.9-0.7-2-1.3-3.2-1.7c-2.8-1-5.8-0.9-8.2,0.3c-5.1,2.5-7,8.2-7.8,11.3 c-2.4,10.6,2.2,21.7,6.3,31.4l0.1,0.3c0.7,1.6,1.6,4.9,1.6,5.1l0,0l0.5,1.8l1.7-0.7c0.4-0.2,0.8-0.3,1.2-0.5 c9.9-3.9,19-4.4,25.7-1.5c4.9,2.1,8.3,6,10.4,11.6c0.1,0.3,0.2,0.6,0.3,0.9l0.4-0.1c0.6-0.1,1.3,0.1,1.7,0.7 c0.1-0.6,0.5-1,1.1-1.2c-0.1-0.4-0.3-0.9-0.4-1.3c-2.3-6.4-6.4-11-12.1-13.5c-7.4-3.3-17.3-2.8-27.8,1.2c-0.4-1.2-0.9-2.8-1.3-3.8 l-0.1-0.3c-4.1-9.8-8.3-19.9-6.1-29.5c0.6-2.6,2.2-7.2,6-9.1c1.5-0.8,3.7-0.8,5.6-0.1c1.5,0.5,2.7,1.4,3.4,2.5 c0.3-0.4,0.7-0.6,1.2-0.6l0,0c0.9,0,1.6,0.7,1.6,1.6s0.1,1.8,0.1,2.6l0.5-3.4c1.2-8.9,3.7-14.4,7.6-20.9c2.2-3.8,5.2-6.5,9.4-8.8 c4.7-2.5,9.5-3.2,12.9-1.7c5.1,2.2,7.7,5,9.6,10.7c0.5-0.3,1-0.4,1.6-0.2c0.6,0.3,1,0.9,1,1.5l0.5-0.8c3.6-6,6.6-9.4,11.2-12.6 c4-2.8,8-4.1,12.3-4.2c4.7-0.1,8.4,1.2,11.4,3.7c5.8,5,7.6,12.7,4.9,20.4c0.1-0.1,0.2-0.1,0.3-0.2c0.8-0.5,1.8-0.3,2.3,0.5 s0.3,1.8-0.5,2.3c-1.5,1-3,2.1-4.3,3.3l-0.2,0.4l4.6-3.3c7.3-5.3,18.7-5.1,25.4,0.4c5.5,4.6,7.6,11.9,6.4,23 c-0.6,5.3-2.8,9.8-5.1,14.6c-0.9,1.8-1.8,3.6-2.6,5.6c-3.2,7.3-5.4,15.9-6.2,23.7c-0.8,8.7,1.8,16.9,7.1,22v1.4 c-6.4,2.3-32,11.3-35.2,11.8c-1.8,0.3-3.8-0.4-5.2-1.8c-1.6-1.6-1.8-4.6-0.3-6.4c0.8-0.9,1.9-1.6,3.2-2.3c0.4-0.2,0.9-0.5,1.3-0.8 c8.6-5.3,12.4-16.7,8.8-26c-1.2-3.1-3.1-5.6-5.4-7.2c-1.6-1.2-3.6-2-5.9-2.5c-1.4-0.3-2.8-0.5-4.3-0.5c-5,0-10,1.8-14.2,5 c0.1,0.1,0.1,0.2,0.2,0.4c0.2,0.9-0.4,1.8-1.3,1.9l-2,0.4c-0.7,0.8-1.4,1.6-2.1,2.5c-4.3,6-5.9,14-4.8,22.8 c-3.7-1-10.8-4.6-11.7-17.4c-0.1-1.3-0.3-2.6-0.5-3.8c-0.1,0-0.2,0-0.3,0c-0.5,0-1-0.3-1.3-0.7c-0.1,0.6-0.6,1.1-1.3,1.3l-0.3,0.1 c0.2,1.1,0.4,2.2,0.4,3.3c1.1,15.6,11.1,20.4,16.8,20.8l2.1,0.1l-0.4-2.1c-1.6-8.8-0.3-16.8,3.9-22.5c4.7-6.6,13.1-10.1,20.2-8.5 c1.8,0.4,3.4,1.1,4.7,2c1.8,1.3,3.2,3.3,4.2,5.8c3,7.7-0.3,17.6-7.4,22c-0.4,0.2-0.8,0.5-1.2,0.7c-1.4,0.8-2.9,1.6-4,3 c-2.6,3-2.4,8,0.4,10.8c1.8,1.8,4.2,2.8,6.6,2.8c0.5,0,1,0,1.5-0.1c3.5-0.6,27.4-9,34.7-11.6c0.3-0.1,0.6-0.2,0.9-0.3v-8.4 c-3.7-4.5-5.4-10.9-4.8-17.8c0.7-7.5,2.9-15.8,5.9-22.7c0.8-1.9,1.7-3.7,2.6-5.4c2.5-5,4.8-9.8,5.4-15.7 C776.9,515.3,777,504.2,768.5,497.2z"></path> <path class="st4" d="M685.1,564.9c0,0.2,0,0.4,0,0.7c0.3,0.4,0.8,0.7,1.3,0.7c0.1,0,0.2,0,0.3,0l0,0l19-4l2-0.4 c0.9-0.2,1.4-1.1,1.3-1.9c0-0.1-0.1-0.2-0.2-0.4c-0.3-0.7-1-1.1-1.8-0.9l-21,4.4c0,0-0.1,0-0.1,0.1c-0.6,0.2-1,0.6-1.1,1.2 C685,564.4,685.1,564.6,685.1,564.9z"></path> <path class="st4" d="M646.1,571.5l-0.9,0.2c-0.9,0.2-1.4,1.1-1.3,1.9c0.2,0.8,0.8,1.3,1.6,1.3c0.1,0,0.2,0,0.3,0l37.7-8l0.3-0.1 c0.7-0.1,1.1-0.7,1.3-1.3c0-0.2,0-0.4,0-0.7c0-0.2-0.1-0.4-0.3-0.6c-0.4-0.5-1-0.8-1.7-0.7l-0.4,0.1L646.1,571.5z"></path> <path class="st4" d="M719.2,519.1c-0.4,0.8-0.1,1.8,0.8,2.2c0.2,0.1,0.5,0.2,0.7,0.2c0.6,0,1.2-0.3,1.5-0.9 c0.1-0.1,5.2-10.5,14.4-18.3c1.4-1.2,2.8-2.3,4.3-3.3c0.8-0.5,1-1.5,0.5-2.3s-1.5-1-2.3-0.5c-0.1,0.1-0.2,0.1-0.3,0.2 C726.4,504.7,719.5,518.5,719.2,519.1z"></path> <path class="st4" d="M695.5,489.2c-4.9,11.1-4.1,22.2-4.1,22.7c0.1,0.9,0.8,1.5,1.6,1.5h0.1c0.9-0.1,1.6-0.9,1.5-1.8 c0-0.1-0.8-10.8,3.8-21.1c0.1-0.2,0.1-0.4,0.1-0.7c0-0.6-0.4-1.2-1-1.5c-0.6-0.2-1.1-0.1-1.6,0.2 C695.8,488.7,695.6,488.9,695.5,489.2z"></path> <path class="st4" d="M655.1,524.6c0.2,0.7,0.9,1.1,1.5,1.1c0.2,0,0.4,0,0.6-0.1c0.8-0.3,1.3-1.3,0.9-2.1c0,0-1.5-4.1-2-10.7 c-0.1-0.8-0.1-1.7-0.1-2.6s-0.7-1.6-1.6-1.6l0,0c-0.5,0-0.9,0.3-1.2,0.6c-0.2,0.3-0.4,0.6-0.4,1 C652.9,518.9,655,524.4,655.1,524.6z"></path> </g> </g> <line class="st6" x1="101.3" y1="143.8" x2="170" y2="143.8"></line> <polyline class="st6" points="141.9,176.2 170,143.8 141.9,111.3 "></polyline> <path class="st7" d="M196.1,115.4V91.1h24.3"></path> <path class="st7" d="M278.6,91.1h24.3v24.3"></path> <path class="st7" d="M302.9,173.7V198h-24.3"></path> <path class="st7" d="M220.3,198H196v-24.3"></path> <path class="st8" d="M249.5,183.4c21.5,0,38.9-17.4,38.9-38.9s-17.4-38.9-38.9-38.9s-38.9,17.4-38.9,38.9S228,183.4,249.5,183.4z"></path> <polyline class="st9" points="344.1,292.6 249.5,292.6 249.5,198 "></polyline> <polyline class="st9" points="491.1,443.6 396.4,443.6 396.4,346 "></polyline> <line class="st10" x1="232.7" y1="161.3" x2="266.2" y2="127.8"></line> <line class="st10" x1="232.7" y1="127.8" x2="266.2" y2="161.3"></line> <path class="st7" d="M344.1,263.5v-24.3h24.3"></path> <path class="st7" d="M426.7,239.2H451v24.3"></path> <path class="st7" d="M451,321.7V346h-24.3"></path> <path class="st7" d="M368.4,346h-24.3v-24.3"></path> <path class="st8" d="M397.6,331.5c21.5,0,38.9-17.4,38.9-38.9s-17.4-38.9-38.9-38.9s-38.9,17.4-38.9,38.9S376.1,331.5,397.6,331.5z"></path> <line class="st10" x1="380.8" y1="309.3" x2="414.3" y2="275.9"></line> <line class="st10" x1="380.8" y1="275.9" x2="414.3" y2="309.3"></line> <path class="st11" d="M491.1,410.4v-24.3h24.3"></path> <path class="st11" d="M573.7,386.1H598v24.3"></path> <path class="st11" d="M597.9,468.7V493h-24.3"></path> <path class="st11" d="M515.4,493h-24.3v-24.3"></path> <path class="st12" d="M544.5,478.4c21.5,0,38.9-17.4,38.9-38.9s-17.4-38.9-38.9-38.9s-38.9,17.4-38.9,38.9 C505.7,461,523,478.4,544.5,478.4z"></path> <g> <polyline class="st10" points="525.7,442.1 537.7,457.5 564.5,421.6 "></polyline> </g> <g> <path class="st13" d="M578,651.3c9.9,0,17.9-8,17.9-17.9c0-9.9-8-17.9-17.9-17.9s-17.9,8-17.9,17.9 C560.2,643.3,568.2,651.3,578,651.3z"></path> <g> <polyline class="st13" points="569.4,634.6 574.9,641.7 587.2,625.2 "></polyline> </g> </g> <g> <circle class="st6" cx="47.8" cy="143.8" r="43.2"></circle> <path class="st6" d="M47.8,145.5c6.8,0,12.4-5.5,12.4-12.4c0-6.8-5.5-12.4-12.4-12.4s-12.4,5.5-12.4,12.4 C35.4,140,40.9,145.5,47.8,145.5z"></path> <path class="st6" d="M72.5,175.9c-2.3-11.3-12.8-19.8-24.8-19.8s-22.5,8.5-24.8,19.8"></path> </g> <g> <g> <path class="st4" d="M230.5,45h-5.4V27.5h5.6c1.7,0,3.1,0.3,4.3,1s2.1,1.7,2.8,3s1,2.9,1,4.7s-0.3,3.4-1,4.7 c-0.6,1.3-1.6,2.3-2.8,3C233.8,44.6,232.3,45,230.5,45z M227.2,43.1h3.1c1.4,0,2.6-0.3,3.6-0.8c0.9-0.6,1.7-1.3,2.1-2.4 s0.7-2.3,0.7-3.7s-0.2-2.6-0.7-3.6s-1.1-1.8-2.1-2.4c-0.9-0.5-2.1-0.8-3.4-0.8h-3.4L227.2,43.1L227.2,43.1z"></path> <path class="st4" d="M245.9,45.3c-0.8,0-1.6-0.2-2.3-0.5s-1.2-0.8-1.6-1.4c-0.4-0.6-0.6-1.3-0.6-2.2c0-0.8,0.1-1.4,0.4-1.8 s0.7-0.8,1.2-1.1s1-0.5,1.6-0.6s1.2-0.2,1.8-0.3c0.8-0.1,1.4-0.2,1.9-0.2c0.5-0.1,0.9-0.1,1.1-0.3c0.2-0.1,0.3-0.4,0.3-0.7v-0.1 c0-0.8-0.2-1.5-0.7-2s-1.1-0.7-2.1-0.7s-1.7,0.2-2.3,0.6s-0.9,0.9-1.2,1.3l-1.9-0.7c0.3-0.8,0.8-1.4,1.4-1.9 c0.6-0.4,1.2-0.8,1.9-0.9c0.7-0.2,1.3-0.3,2-0.3c0.4,0,0.9,0,1.5,0.1c0.5,0.1,1.1,0.3,1.6,0.6s0.9,0.8,1.3,1.4 c0.3,0.6,0.5,1.4,0.5,2.5V45h-2v-1.8h-0.1c-0.1,0.3-0.4,0.6-0.7,0.9c-0.3,0.3-0.7,0.6-1.3,0.8S246.7,45.3,245.9,45.3z M246.2,43.5 c0.8,0,1.5-0.2,2-0.5s1-0.7,1.2-1.2c0.3-0.5,0.4-1,0.4-1.6v-1.8c-0.1,0.1-0.3,0.2-0.6,0.3s-0.6,0.2-1,0.2s-0.7,0.1-1.1,0.2 c-0.3,0-0.6,0.1-0.8,0.1c-0.5,0.1-1,0.2-1.5,0.3c-0.5,0.2-0.8,0.4-1.1,0.7s-0.4,0.7-0.4,1.2c0,0.7,0.3,1.2,0.8,1.6 S245.4,43.5,246.2,43.5z"></path> <path class="st4" d="M261.3,31.9v1.7h-6.8v-1.7C254.5,31.9,261.3,31.9,261.3,31.9z M256.5,28.8h2v12.5c0,0.6,0.1,1,0.3,1.3 c0.2,0.3,0.4,0.5,0.6,0.6s0.5,0.1,0.8,0.1c0.2,0,0.4,0,0.5,0s0.3,0,0.3-0.1l0.4,1.8c-0.1,0.1-0.3,0.1-0.6,0.2 c-0.2,0.1-0.6,0.1-0.9,0.1c-0.6,0-1.1-0.1-1.7-0.4c-0.5-0.2-1-0.6-1.3-1.1s-0.5-1.1-0.5-1.9V28.8H256.5z"></path> <path class="st4" d="M268.2,45.3c-0.8,0-1.6-0.2-2.3-0.5c-0.7-0.3-1.2-0.8-1.6-1.4c-0.4-0.6-0.6-1.3-0.6-2.2 c0-0.8,0.1-1.4,0.4-1.8s0.7-0.8,1.2-1.1s1-0.5,1.6-0.6s1.2-0.2,1.8-0.3c0.8-0.1,1.4-0.2,1.9-0.2c0.5-0.1,0.9-0.1,1.1-0.3 c0.2-0.1,0.3-0.4,0.3-0.7v-0.1c0-0.8-0.2-1.5-0.7-2s-1.1-0.7-2.1-0.7s-1.7,0.2-2.3,0.6s-0.9,0.9-1.2,1.3l-1.9-0.7 c0.3-0.8,0.8-1.4,1.4-1.9c0.6-0.4,1.2-0.8,1.9-0.9c0.7-0.2,1.3-0.3,2-0.3c0.4,0,0.9,0,1.5,0.1c0.5,0.1,1.1,0.3,1.6,0.6 s0.9,0.8,1.3,1.4c0.3,0.6,0.5,1.4,0.5,2.5V45h-2v-1.8h-0.1c-0.1,0.3-0.4,0.6-0.7,0.9c-0.3,0.3-0.7,0.6-1.3,0.8 S268.9,45.3,268.2,45.3z M268.5,43.5c0.8,0,1.5-0.2,2-0.5s1-0.7,1.2-1.2c0.3-0.5,0.4-1,0.4-1.6v-1.8c-0.1,0.1-0.3,0.2-0.6,0.3 c-0.3,0.1-0.6,0.2-1,0.2s-0.7,0.1-1.1,0.2c-0.3,0-0.6,0.1-0.8,0.1c-0.5,0.1-1,0.2-1.5,0.3c-0.5,0.2-0.8,0.4-1.1,0.7 c-0.3,0.3-0.4,0.7-0.4,1.2c0,0.7,0.3,1.2,0.8,1.6S267.7,43.5,268.5,43.5z"></path> <path class="st4" d="M212.3,59.1c-0.1-0.9-0.5-1.5-1.2-2s-1.6-0.7-2.7-0.7c-0.8,0-1.4,0.1-2,0.4c-0.6,0.3-1,0.6-1.3,1 s-0.5,0.9-0.5,1.5c0,0.5,0.1,0.9,0.3,1.2s0.5,0.6,0.9,0.8s0.7,0.4,1.1,0.5c0.4,0.1,0.7,0.3,1.1,0.3l1.8,0.5c0.5,0.1,1,0.3,1.5,0.5 c0.6,0.2,1.1,0.5,1.6,0.9s0.9,0.8,1.3,1.4c0.3,0.6,0.5,1.3,0.5,2.1c0,0.9-0.2,1.8-0.7,2.6c-0.5,0.8-1.2,1.4-2.1,1.8 c-0.9,0.4-2.1,0.7-3.4,0.7c-1.2,0-2.3-0.2-3.2-0.6s-1.6-1-2.1-1.7s-0.8-1.6-0.9-2.5h2.2c0.1,0.7,0.3,1.2,0.7,1.6s0.9,0.7,1.5,1 c0.6,0.2,1.2,0.3,1.9,0.3c0.8,0,1.5-0.1,2.2-0.4s1.2-0.6,1.5-1.1s0.6-1,0.6-1.7c0-0.6-0.2-1.1-0.5-1.4c-0.3-0.4-0.8-0.7-1.3-0.9 c-0.5-0.2-1.1-0.4-1.7-0.6l-2.1-0.6c-1.4-0.4-2.4-1-3.2-1.7s-1.2-1.7-1.2-2.9c0-1,0.3-1.8,0.8-2.6c0.5-0.7,1.2-1.3,2.1-1.7 c0.9-0.4,1.9-0.6,3-0.6s2.1,0.2,3,0.6s1.6,0.9,2.1,1.6s0.8,1.5,0.8,2.4C214.7,59.1,212.3,59.1,212.3,59.1z"></path> <path class="st4" d="M223.1,72.5c-1.2,0-2.2-0.3-3.1-0.8c-0.9-0.6-1.6-1.3-2.1-2.4c-0.5-1-0.7-2.2-0.7-3.5c0-1.4,0.2-2.6,0.7-3.6 s1.2-1.8,2.1-2.4c0.9-0.6,1.9-0.8,3.1-0.8c1.2,0,2.2,0.3,3.1,0.8s1.6,1.4,2.1,2.4s0.7,2.2,0.7,3.6s-0.2,2.5-0.7,3.5 s-1.2,1.8-2.1,2.4S224.3,72.5,223.1,72.5z M223.1,70.7c0.9,0,1.6-0.2,2.2-0.7c0.6-0.5,1-1.1,1.3-1.8c0.3-0.8,0.4-1.6,0.4-2.4 s-0.1-1.7-0.4-2.4c-0.3-0.8-0.7-1.4-1.3-1.8c-0.6-0.5-1.3-0.7-2.2-0.7s-1.6,0.2-2.2,0.7c-0.6,0.5-1,1.1-1.3,1.8 c-0.3,0.8-0.4,1.6-0.4,2.4s0.1,1.7,0.4,2.4s0.7,1.4,1.3,1.8C221.4,70.4,222.2,70.7,223.1,70.7z"></path> <path class="st4" d="M240.3,66.8v-7.7h2v13.1h-2V70h-0.1c-0.3,0.7-0.8,1.2-1.4,1.7c-0.6,0.5-1.5,0.7-2.5,0.7 c-0.8,0-1.5-0.2-2.2-0.5s-1.1-0.9-1.5-1.6s-0.5-1.7-0.5-2.8v-8.3h2v8.2c0,1,0.3,1.7,0.8,2.3c0.5,0.6,1.2,0.9,2.1,0.9 c0.5,0,1-0.1,1.5-0.4s1-0.6,1.3-1.2S240.3,67.7,240.3,66.8z"></path> <path class="st4" d="M246,72.2V59.1h1.9v2h0.1c0.2-0.6,0.7-1.2,1.3-1.6c0.6-0.4,1.3-0.6,2.1-0.6c0.1,0,0.3,0,0.6,0 c0.2,0,0.4,0,0.5,0v2c-0.1,0-0.2,0-0.5-0.1c-0.2,0-0.5-0.1-0.8-0.1c-0.6,0-1.2,0.1-1.7,0.4c-0.5,0.3-0.9,0.6-1.2,1.1 s-0.4,1-0.4,1.6v8.3L246,72.2L246,72.2z"></path> <path class="st4" d="M260.3,72.5c-1.2,0-2.3-0.3-3.2-0.9c-0.9-0.6-1.6-1.4-2-2.4c-0.5-1-0.7-2.2-0.7-3.5s0.2-2.5,0.7-3.5 s1.2-1.8,2.1-2.4c0.9-0.6,1.9-0.9,3.1-0.9c0.9,0,1.8,0.2,2.5,0.5s1.3,0.8,1.8,1.4c0.5,0.6,0.8,1.3,0.9,2.1h-2 c-0.2-0.6-0.5-1.1-1-1.6s-1.2-0.7-2.1-0.7c-0.8,0-1.5,0.2-2.1,0.6c-0.6,0.4-1,1-1.4,1.7c-0.3,0.7-0.5,1.6-0.5,2.6s0.2,1.9,0.5,2.6 c0.3,0.8,0.8,1.3,1.4,1.7c0.6,0.4,1.3,0.6,2.1,0.6c0.5,0,1-0.1,1.4-0.3c0.4-0.2,0.8-0.4,1.1-0.8s0.5-0.8,0.6-1.2h2 c-0.1,0.8-0.4,1.5-0.8,2.1s-1,1.1-1.8,1.5S261.2,72.5,260.3,72.5z"></path> <path class="st4" d="M273.8,72.5c-1.3,0-2.3-0.3-3.3-0.8c-0.9-0.6-1.6-1.3-2.1-2.4c-0.5-1-0.7-2.2-0.7-3.5s0.2-2.5,0.7-3.5 s1.2-1.8,2.1-2.4c0.9-0.6,1.9-0.9,3.1-0.9c0.7,0,1.4,0.1,2,0.3c0.7,0.2,1.3,0.6,1.8,1.1s1,1.2,1.3,2s0.5,1.9,0.5,3.1v0.9h-10.1 v-1.7h8c0-0.7-0.1-1.4-0.4-2s-0.7-1-1.2-1.4c-0.5-0.3-1.2-0.5-1.9-0.5c-0.8,0-1.5,0.2-2.1,0.6c-0.6,0.4-1,0.9-1.3,1.5 s-0.5,1.3-0.5,2v1.2c0,1,0.2,1.8,0.5,2.5s0.8,1.2,1.4,1.6s1.3,0.5,2.1,0.5c0.5,0,1-0.1,1.4-0.2c0.4-0.2,0.8-0.4,1.1-0.7 c0.3-0.3,0.6-0.7,0.7-1.1l1.9,0.5c-0.2,0.7-0.5,1.2-1,1.7s-1.1,0.9-1.8,1.2C275.5,72.3,274.7,72.5,273.8,72.5z"></path> <path class="st4" d="M295.2,54.7v17.5h-2.1V57H293l-4.3,2.8v-2.1l4.4-2.9L295.2,54.7L295.2,54.7z"></path> </g> </g> <g> <g> <path class="st4" d="M381,194h-5.4v-17.5h5.6c1.7,0,3.1,0.3,4.3,1c1.2,0.7,2.1,1.7,2.8,3s1,2.9,1,4.7s-0.3,3.4-1,4.7 c-0.6,1.3-1.6,2.3-2.8,3C384.3,193.6,382.8,194,381,194z M377.7,192.1h3.1c1.4,0,2.6-0.3,3.6-0.8c0.9-0.6,1.7-1.3,2.1-2.4 s0.7-2.3,0.7-3.7s-0.2-2.6-0.7-3.6s-1.1-1.8-2.1-2.4c-0.9-0.5-2.1-0.8-3.4-0.8h-3.4L377.7,192.1L377.7,192.1z"></path> <path class="st4" d="M396.4,194.3c-0.8,0-1.6-0.2-2.3-0.5c-0.7-0.3-1.2-0.8-1.6-1.4c-0.4-0.6-0.6-1.3-0.6-2.2 c0-0.8,0.1-1.4,0.4-1.8s0.7-0.8,1.2-1.1s1-0.5,1.6-0.6s1.2-0.2,1.8-0.3c0.8-0.1,1.4-0.2,1.9-0.2c0.5-0.1,0.9-0.1,1.1-0.3 c0.2-0.1,0.3-0.4,0.3-0.7v-0.1c0-0.8-0.2-1.5-0.7-2s-1.1-0.7-2.1-0.7s-1.7,0.2-2.3,0.6s-0.9,0.9-1.2,1.3l-1.9-0.7 c0.3-0.8,0.8-1.4,1.4-1.9c0.6-0.4,1.2-0.8,1.9-0.9c0.7-0.2,1.3-0.3,2-0.3c0.4,0,0.9,0,1.5,0.1c0.5,0.1,1.1,0.3,1.6,0.6 s0.9,0.8,1.3,1.4c0.3,0.6,0.5,1.4,0.5,2.5v8.6h-2v-1.8h-0.1c-0.1,0.3-0.4,0.6-0.7,0.9c-0.3,0.3-0.7,0.6-1.3,0.8 S397.2,194.3,396.4,194.3z M396.7,192.5c0.8,0,1.5-0.2,2-0.5s1-0.7,1.2-1.2c0.3-0.5,0.4-1,0.4-1.6v-1.8c-0.1,0.1-0.3,0.2-0.6,0.3 c-0.3,0.1-0.6,0.2-1,0.2s-0.7,0.1-1.1,0.2c-0.3,0-0.6,0.1-0.8,0.1c-0.5,0.1-1,0.2-1.5,0.3c-0.5,0.2-0.8,0.4-1.1,0.7 c-0.3,0.3-0.4,0.7-0.4,1.2c0,0.7,0.3,1.2,0.8,1.6S395.9,192.5,396.7,192.5z"></path> <path class="st4" d="M411.8,180.9v1.7H405v-1.7H411.8z M407,177.8h2v12.5c0,0.6,0.1,1,0.3,1.3s0.4,0.5,0.6,0.6s0.5,0.1,0.8,0.1 c0.2,0,0.4,0,0.5,0s0.3,0,0.3-0.1l0.4,1.8c-0.1,0.1-0.3,0.1-0.6,0.2c-0.2,0.1-0.6,0.1-0.9,0.1c-0.6,0-1.1-0.1-1.7-0.4 c-0.5-0.2-1-0.6-1.3-1.1s-0.5-1.1-0.5-1.9v-13.1L407,177.8L407,177.8z"></path> <path class="st4" d="M418.7,194.3c-0.8,0-1.6-0.2-2.3-0.5c-0.7-0.3-1.2-0.8-1.6-1.4c-0.4-0.6-0.6-1.3-0.6-2.2 c0-0.8,0.1-1.4,0.4-1.8s0.7-0.8,1.2-1.1s1-0.5,1.6-0.6s1.2-0.2,1.8-0.3c0.8-0.1,1.4-0.2,1.9-0.2c0.5-0.1,0.9-0.1,1.1-0.3 c0.2-0.1,0.3-0.4,0.3-0.7v-0.1c0-0.8-0.2-1.5-0.7-2s-1.1-0.7-2.1-0.7s-1.7,0.2-2.3,0.6c-0.5,0.4-0.9,0.9-1.2,1.3l-1.9-0.7 c0.3-0.8,0.8-1.4,1.4-1.9c0.6-0.4,1.2-0.8,1.9-0.9c0.7-0.2,1.3-0.3,2-0.3c0.4,0,0.9,0,1.5,0.1c0.5,0.1,1.1,0.3,1.6,0.6 s0.9,0.8,1.3,1.4c0.3,0.6,0.5,1.4,0.5,2.5v8.6h-2v-1.8h-0.1c-0.1,0.3-0.4,0.6-0.7,0.9s-0.7,0.6-1.3,0.8 C420.1,194.2,419.4,194.3,418.7,194.3z M419,192.5c0.8,0,1.5-0.2,2-0.5s1-0.7,1.2-1.2c0.3-0.5,0.4-1,0.4-1.6v-1.8 c-0.1,0.1-0.3,0.2-0.6,0.3c-0.3,0.1-0.6,0.2-1,0.2c-0.4,0.1-0.7,0.1-1.1,0.2s-0.6,0.1-0.8,0.1c-0.5,0.1-1,0.2-1.5,0.3 c-0.5,0.2-0.8,0.4-1.1,0.7s-0.4,0.7-0.4,1.2c0,0.7,0.3,1.2,0.8,1.6C417.5,192.3,418.2,192.5,419,192.5z"></path> <path class="st4" d="M361.1,208.1c-0.1-0.9-0.5-1.5-1.2-2s-1.6-0.7-2.7-0.7c-0.8,0-1.4,0.1-2,0.4c-0.6,0.3-1,0.6-1.3,1 s-0.5,0.9-0.5,1.5c0,0.5,0.1,0.9,0.3,1.2c0.2,0.3,0.5,0.6,0.9,0.8s0.7,0.4,1.1,0.5s0.7,0.3,1.1,0.3l1.8,0.5c0.5,0.1,1,0.3,1.5,0.5 c0.6,0.2,1.1,0.5,1.6,0.9s0.9,0.8,1.3,1.4c0.3,0.6,0.5,1.3,0.5,2.1c0,0.9-0.2,1.8-0.7,2.6s-1.2,1.4-2.1,1.8 c-0.9,0.4-2.1,0.7-3.4,0.7c-1.2,0-2.3-0.2-3.2-0.6c-0.9-0.4-1.6-1-2.1-1.7s-0.8-1.6-0.9-2.5h2.2c0.1,0.7,0.3,1.2,0.7,1.6 c0.4,0.4,0.9,0.7,1.5,1c0.6,0.2,1.2,0.3,1.9,0.3c0.8,0,1.5-0.1,2.2-0.4s1.2-0.6,1.5-1.1s0.6-1,0.6-1.7c0-0.6-0.2-1.1-0.5-1.4 c-0.3-0.4-0.8-0.7-1.3-0.9s-1.1-0.4-1.7-0.6l-2.1-0.6c-1.4-0.4-2.4-1-3.2-1.7c-0.8-0.7-1.2-1.7-1.2-2.9c0-1,0.3-1.8,0.8-2.6 c0.5-0.7,1.2-1.3,2.1-1.7s1.9-0.6,3-0.6s2.1,0.2,3,0.6s1.6,0.9,2.1,1.6s0.8,1.5,0.8,2.4L361.1,208.1L361.1,208.1z"></path> <path class="st4" d="M371.9,221.5c-1.2,0-2.2-0.3-3.1-0.8c-0.9-0.6-1.6-1.3-2.1-2.4c-0.5-1-0.7-2.2-0.7-3.5c0-1.4,0.2-2.6,0.7-3.6 s1.2-1.8,2.1-2.4c0.9-0.6,1.9-0.8,3.1-0.8s2.2,0.3,3.1,0.8s1.6,1.4,2.1,2.4s0.7,2.2,0.7,3.6c0,1.4-0.2,2.5-0.7,3.5 s-1.2,1.8-2.1,2.4S373.1,221.5,371.9,221.5z M371.9,219.7c0.9,0,1.6-0.2,2.2-0.7s1-1.1,1.3-1.8c0.3-0.8,0.4-1.6,0.4-2.4 s-0.1-1.7-0.4-2.4c-0.3-0.8-0.7-1.4-1.3-1.8c-0.6-0.5-1.3-0.7-2.2-0.7c-0.9,0-1.6,0.2-2.2,0.7s-1,1.1-1.3,1.8 c-0.3,0.8-0.4,1.6-0.4,2.4s0.1,1.7,0.4,2.4s0.7,1.4,1.3,1.8C370.3,219.4,371,219.7,371.9,219.7z"></path> <path class="st4" d="M389.1,215.8v-7.7h2v13.1h-2V219H389c-0.3,0.7-0.8,1.2-1.4,1.7s-1.5,0.7-2.5,0.7c-0.8,0-1.5-0.2-2.2-0.5 s-1.1-0.9-1.5-1.6c-0.4-0.7-0.5-1.7-0.5-2.8v-8.3h2v8.2c0,1,0.3,1.7,0.8,2.3s1.2,0.9,2.1,0.9c0.5,0,1-0.1,1.5-0.4 c0.5-0.3,1-0.6,1.3-1.2S389.1,216.7,389.1,215.8z"></path> <path class="st4" d="M394.8,221.2v-13.1h1.9v2h0.1c0.2-0.6,0.7-1.2,1.3-1.6c0.6-0.4,1.3-0.6,2.1-0.6c0.1,0,0.3,0,0.6,0 c0.2,0,0.4,0,0.5,0v2c-0.1,0-0.2,0-0.5-0.1s-0.5-0.1-0.8-0.1c-0.6,0-1.2,0.1-1.7,0.4c-0.5,0.3-0.9,0.6-1.2,1.1 c-0.3,0.5-0.4,1-0.4,1.6v8.3h-1.9V221.2z"></path> <path class="st4" d="M409.1,221.5c-1.2,0-2.3-0.3-3.2-0.9s-1.6-1.4-2-2.4c-0.5-1-0.7-2.2-0.7-3.5s0.2-2.5,0.7-3.5s1.2-1.8,2.1-2.4 c0.9-0.6,1.9-0.9,3.1-0.9c0.9,0,1.8,0.2,2.5,0.5s1.3,0.8,1.8,1.4c0.5,0.6,0.8,1.3,0.9,2.1h-2c-0.2-0.6-0.5-1.1-1-1.6 s-1.2-0.7-2.1-0.7c-0.8,0-1.5,0.2-2.1,0.6c-0.6,0.4-1,1-1.4,1.7c-0.3,0.7-0.5,1.6-0.5,2.6s0.2,1.9,0.5,2.6 c0.3,0.8,0.8,1.3,1.4,1.7s1.3,0.6,2.1,0.6c0.5,0,1-0.1,1.4-0.3s0.8-0.4,1.1-0.8c0.3-0.3,0.5-0.8,0.6-1.2h2 c-0.1,0.8-0.4,1.5-0.8,2.1s-1,1.1-1.8,1.5S410.1,221.5,409.1,221.5z"></path> <path class="st4" d="M422.7,221.5c-1.3,0-2.3-0.3-3.3-0.8c-0.9-0.6-1.6-1.3-2.1-2.4c-0.5-1-0.7-2.2-0.7-3.5s0.2-2.5,0.7-3.5 s1.2-1.8,2.1-2.4c0.9-0.6,1.9-0.9,3.1-0.9c0.7,0,1.4,0.1,2,0.3c0.7,0.2,1.3,0.6,1.8,1.1s1,1.2,1.3,2s0.5,1.9,0.5,3.1v0.9H418v-1.7 h8c0-0.7-0.1-1.4-0.4-2s-0.7-1-1.2-1.4c-0.5-0.3-1.2-0.5-1.9-0.5c-0.8,0-1.5,0.2-2.1,0.6c-0.6,0.4-1,0.9-1.3,1.5s-0.5,1.3-0.5,2 v1.2c0,1,0.2,1.8,0.5,2.5s0.8,1.2,1.4,1.6c0.6,0.4,1.3,0.5,2.1,0.5c0.5,0,1-0.1,1.4-0.2c0.4-0.2,0.8-0.4,1.1-0.7 c0.3-0.3,0.6-0.7,0.7-1.1l1.9,0.5c-0.2,0.7-0.5,1.2-1,1.7s-1.1,0.9-1.8,1.2S423.5,221.5,422.7,221.5z"></path> <path class="st4" d="M437.9,221.2v-1.5l5.8-6.3c0.7-0.7,1.2-1.4,1.7-1.9c0.4-0.5,0.8-1.1,1-1.6s0.3-1,0.3-1.5 c0-0.6-0.1-1.1-0.4-1.6c-0.3-0.4-0.7-0.8-1.2-1s-1.1-0.4-1.7-0.4c-0.7,0-1.3,0.1-1.8,0.4c-0.5,0.3-0.9,0.7-1.2,1.2 c-0.3,0.5-0.4,1.1-0.4,1.7h-2c0-1,0.2-1.9,0.7-2.7s1.1-1.4,1.9-1.8s1.7-0.6,2.7-0.6s1.9,0.2,2.7,0.6c0.8,0.4,1.4,1,1.9,1.7 s0.7,1.5,0.7,2.4c0,0.6-0.1,1.3-0.3,1.9c-0.2,0.6-0.6,1.3-1.2,2s-1.3,1.7-2.3,2.7l-3.9,4.2v0.1h8.1v1.9h-11.1L437.9,221.2 L437.9,221.2z"></path> </g> </g> <g> <g> <path class="st4" d="M526.1,342h-5.4v-17.5h5.6c1.7,0,3.1,0.3,4.3,1s2.1,1.7,2.8,3c0.6,1.3,1,2.9,1,4.7c0,1.8-0.3,3.4-1,4.7 c-0.6,1.3-1.6,2.3-2.8,3C529.4,341.6,527.9,342,526.1,342z M522.8,340.1h3.1c1.4,0,2.6-0.3,3.6-0.8c0.9-0.6,1.7-1.3,2.1-2.4 s0.7-2.3,0.7-3.7c0-1.4-0.2-2.6-0.7-3.6s-1.1-1.8-2.1-2.4c-0.9-0.5-2.1-0.8-3.4-0.8h-3.4v13.7L522.8,340.1L522.8,340.1z"></path> <path class="st4" d="M541.5,342.3c-0.8,0-1.6-0.2-2.3-0.5s-1.2-0.8-1.6-1.4c-0.4-0.6-0.6-1.3-0.6-2.2c0-0.8,0.1-1.4,0.4-1.8 c0.3-0.5,0.7-0.8,1.2-1.1c0.5-0.3,1-0.5,1.6-0.6s1.2-0.2,1.8-0.3c0.8-0.1,1.4-0.2,1.9-0.2c0.5-0.1,0.9-0.1,1.1-0.3 c0.2-0.1,0.3-0.4,0.3-0.7v-0.1c0-0.8-0.2-1.5-0.7-2s-1.1-0.7-2.1-0.7s-1.7,0.2-2.3,0.6c-0.5,0.4-0.9,0.9-1.2,1.3l-1.9-0.7 c0.3-0.8,0.8-1.4,1.4-1.9c0.6-0.4,1.2-0.8,1.9-0.9c0.7-0.2,1.3-0.3,2-0.3c0.4,0,0.9,0,1.5,0.1c0.5,0.1,1.1,0.3,1.6,0.6 c0.5,0.3,0.9,0.8,1.3,1.4c0.3,0.6,0.5,1.4,0.5,2.5v8.6h-2v-1.8h-0.1c-0.1,0.3-0.4,0.6-0.7,0.9s-0.7,0.6-1.3,0.8 S542.3,342.3,541.5,342.3z M541.8,340.5c0.8,0,1.5-0.2,2-0.5s1-0.7,1.2-1.2c0.3-0.5,0.4-1,0.4-1.6v-1.8c-0.1,0.1-0.3,0.2-0.6,0.3 c-0.3,0.1-0.6,0.2-1,0.2s-0.7,0.1-1.1,0.2s-0.6,0.1-0.8,0.1c-0.5,0.1-1,0.2-1.5,0.3c-0.5,0.2-0.8,0.4-1.1,0.7s-0.4,0.7-0.4,1.2 c0,0.7,0.3,1.2,0.8,1.6C540.4,340.3,541,340.5,541.8,340.5z"></path> <path class="st4" d="M556.9,328.9v1.7h-6.8v-1.7H556.9z M552.1,325.8h2v12.5c0,0.6,0.1,1,0.3,1.3s0.4,0.5,0.6,0.6 c0.3,0.1,0.5,0.1,0.8,0.1c0.2,0,0.4,0,0.5,0s0.3,0,0.3-0.1l0.4,1.8c-0.1,0.1-0.3,0.1-0.6,0.2c-0.2,0.1-0.6,0.1-0.9,0.1 c-0.6,0-1.1-0.1-1.7-0.4c-0.5-0.2-1-0.6-1.3-1.1c-0.4-0.5-0.5-1.1-0.5-1.9v-13.1H552.1z"></path> <path class="st4" d="M563.8,342.3c-0.8,0-1.6-0.2-2.3-0.5s-1.2-0.8-1.6-1.4c-0.4-0.6-0.6-1.3-0.6-2.2c0-0.8,0.1-1.4,0.4-1.8 c0.3-0.5,0.7-0.8,1.2-1.1c0.5-0.3,1-0.5,1.6-0.6s1.2-0.2,1.8-0.3c0.8-0.1,1.4-0.2,1.9-0.2c0.5-0.1,0.9-0.1,1.1-0.3 c0.2-0.1,0.3-0.4,0.3-0.7v-0.1c0-0.8-0.2-1.5-0.7-2s-1.1-0.7-2.1-0.7s-1.7,0.2-2.3,0.6c-0.5,0.4-0.9,0.9-1.2,1.3l-1.9-0.7 c0.3-0.8,0.8-1.4,1.4-1.9c0.6-0.4,1.2-0.8,1.9-0.9c0.7-0.2,1.3-0.3,2-0.3c0.4,0,0.9,0,1.5,0.1c0.5,0.1,1.1,0.3,1.6,0.6 c0.5,0.3,0.9,0.8,1.3,1.4c0.3,0.6,0.5,1.4,0.5,2.5v8.6h-2v-1.8h-0.1c-0.1,0.3-0.4,0.6-0.7,0.9s-0.7,0.6-1.3,0.8 S564.5,342.3,563.8,342.3z M564.1,340.5c0.8,0,1.5-0.2,2-0.5s1-0.7,1.2-1.2c0.3-0.5,0.4-1,0.4-1.6v-1.8c-0.1,0.1-0.3,0.2-0.6,0.3 c-0.3,0.1-0.6,0.2-1,0.2s-0.7,0.1-1.1,0.2c-0.3,0-0.6,0.1-0.8,0.1c-0.5,0.1-1,0.2-1.5,0.3c-0.5,0.2-0.8,0.4-1.1,0.7 c-0.3,0.3-0.4,0.7-0.4,1.2c0,0.7,0.3,1.2,0.8,1.6C562.6,340.3,563.3,340.5,564.1,340.5z"></path> <path class="st4" d="M505.8,356.1c-0.1-0.9-0.5-1.5-1.2-2s-1.6-0.7-2.7-0.7c-0.8,0-1.4,0.1-2,0.4s-1,0.6-1.3,1s-0.5,0.9-0.5,1.5 c0,0.5,0.1,0.9,0.3,1.2c0.2,0.3,0.5,0.6,0.9,0.8c0.4,0.2,0.7,0.4,1.1,0.5s0.7,0.3,1.1,0.3l1.8,0.5c0.5,0.1,1,0.3,1.5,0.5 c0.6,0.2,1.1,0.5,1.6,0.9s0.9,0.8,1.3,1.4s0.5,1.3,0.5,2.1c0,0.9-0.2,1.8-0.7,2.6c-0.5,0.8-1.2,1.4-2.1,1.8s-2.1,0.7-3.4,0.7 c-1.2,0-2.3-0.2-3.2-0.6s-1.6-1-2.1-1.7s-0.8-1.6-0.9-2.5h2.2c0.1,0.7,0.3,1.2,0.7,1.6c0.4,0.4,0.9,0.7,1.5,1 c0.6,0.2,1.2,0.3,1.9,0.3c0.8,0,1.5-0.1,2.2-0.4c0.6-0.3,1.2-0.6,1.5-1.1s0.6-1,0.6-1.7c0-0.6-0.2-1.1-0.5-1.4s-0.8-0.7-1.3-0.9 c-0.5-0.2-1.1-0.4-1.7-0.6l-2.1-0.6c-1.4-0.4-2.4-1-3.2-1.7c-0.8-0.7-1.2-1.7-1.2-2.9c0-1,0.3-1.8,0.8-2.6 c0.5-0.7,1.2-1.3,2.1-1.7c0.9-0.4,1.9-0.6,3-0.6s2.1,0.2,3,0.6s1.6,0.9,2.1,1.6s0.8,1.5,0.8,2.4L505.8,356.1L505.8,356.1z"></path> <path class="st4" d="M516.6,369.5c-1.2,0-2.2-0.3-3.1-0.8s-1.6-1.3-2.1-2.4c-0.5-1-0.7-2.2-0.7-3.5c0-1.4,0.2-2.6,0.7-3.6 s1.2-1.8,2.1-2.4s1.9-0.8,3.1-0.8s2.2,0.3,3.1,0.8c0.9,0.6,1.6,1.4,2.1,2.4s0.7,2.2,0.7,3.6s-0.2,2.5-0.7,3.5s-1.2,1.8-2.1,2.4 C518.8,369.2,517.8,369.5,516.6,369.5z M516.6,367.7c0.9,0,1.6-0.2,2.2-0.7c0.6-0.5,1-1.1,1.3-1.8s0.4-1.6,0.4-2.4 s-0.1-1.7-0.4-2.4c-0.3-0.8-0.7-1.4-1.3-1.8c-0.6-0.5-1.3-0.7-2.2-0.7s-1.6,0.2-2.2,0.7c-0.6,0.5-1,1.1-1.3,1.8 c-0.3,0.8-0.4,1.6-0.4,2.4s0.1,1.7,0.4,2.4s0.7,1.4,1.3,1.8C515,367.4,515.7,367.7,516.6,367.7z"></path> <path class="st4" d="M533.9,363.8v-7.7h2v13.1h-2V367h-0.1c-0.3,0.7-0.8,1.2-1.4,1.7c-0.6,0.5-1.5,0.7-2.5,0.7 c-0.8,0-1.5-0.2-2.2-0.5c-0.6-0.4-1.1-0.9-1.5-1.6s-0.5-1.7-0.5-2.8v-8.3h2v8.2c0,1,0.3,1.7,0.8,2.3c0.5,0.6,1.2,0.9,2.1,0.9 c0.5,0,1-0.1,1.5-0.4s1-0.6,1.3-1.2C533.7,365.3,533.9,364.7,533.9,363.8z"></path> <path class="st4" d="M539.6,369.2v-13.1h1.9v2h0.1c0.2-0.6,0.7-1.2,1.3-1.6s1.3-0.6,2.1-0.6c0.1,0,0.3,0,0.6,0c0.2,0,0.4,0,0.5,0 v2c-0.1,0-0.2,0-0.5-0.1c-0.2,0-0.5-0.1-0.8-0.1c-0.6,0-1.2,0.1-1.7,0.4s-0.9,0.6-1.2,1.1s-0.4,1-0.4,1.6v8.3h-1.9L539.6,369.2 L539.6,369.2z"></path> <path class="st4" d="M553.8,369.5c-1.2,0-2.3-0.3-3.2-0.9s-1.6-1.4-2-2.4c-0.5-1-0.7-2.2-0.7-3.5s0.2-2.5,0.7-3.5s1.2-1.8,2.1-2.4 c0.9-0.6,1.9-0.9,3.1-0.9c0.9,0,1.8,0.2,2.5,0.5s1.3,0.8,1.8,1.4s0.8,1.3,0.9,2.1h-2c-0.2-0.6-0.5-1.1-1-1.6s-1.2-0.7-2.1-0.7 c-0.8,0-1.5,0.2-2.1,0.6s-1,1-1.4,1.7c-0.3,0.7-0.5,1.6-0.5,2.6s0.2,1.9,0.5,2.6c0.3,0.8,0.8,1.3,1.4,1.7c0.6,0.4,1.3,0.6,2.1,0.6 c0.5,0,1-0.1,1.4-0.3c0.4-0.2,0.8-0.4,1.1-0.8c0.3-0.3,0.5-0.8,0.6-1.2h2c-0.1,0.8-0.4,1.5-0.8,2.1c-0.4,0.6-1,1.1-1.8,1.5 C555.6,369.3,554.8,369.5,553.8,369.5z"></path> <path class="st4" d="M567.4,369.5c-1.3,0-2.3-0.3-3.3-0.8c-0.9-0.6-1.6-1.3-2.1-2.4c-0.5-1-0.7-2.2-0.7-3.5s0.2-2.5,0.7-3.5 s1.2-1.8,2.1-2.4c0.9-0.6,1.9-0.9,3.1-0.9c0.7,0,1.4,0.1,2,0.3c0.7,0.2,1.3,0.6,1.8,1.1s1,1.2,1.3,2s0.5,1.9,0.5,3.1v0.9h-10.1 v-1.7h8c0-0.7-0.1-1.4-0.4-2c-0.3-0.6-0.7-1-1.2-1.4s-1.2-0.5-1.9-0.5c-0.8,0-1.5,0.2-2.1,0.6s-1,0.9-1.3,1.5s-0.5,1.3-0.5,2v1.2 c0,1,0.2,1.8,0.5,2.5s0.8,1.2,1.4,1.6c0.6,0.4,1.3,0.5,2.1,0.5c0.5,0,1-0.1,1.4-0.2c0.4-0.2,0.8-0.4,1.1-0.7 c0.3-0.3,0.6-0.7,0.7-1.1l1.9,0.5c-0.2,0.7-0.5,1.2-1,1.7s-1.1,0.9-1.8,1.2S568.3,369.5,567.4,369.5z"></path> <path class="st4" d="M588.5,369.4c-1.1,0-2.1-0.2-3-0.6s-1.6-0.9-2.1-1.6s-0.8-1.5-0.8-2.4h2.1c0,0.6,0.2,1,0.6,1.5 s0.8,0.7,1.3,0.9c0.6,0.2,1.2,0.3,1.8,0.3c0.8,0,1.4-0.1,2-0.4s1-0.6,1.4-1.1c0.3-0.5,0.5-1,0.5-1.6s-0.2-1.2-0.5-1.7 s-0.8-0.9-1.4-1.2c-0.6-0.3-1.4-0.4-2.2-0.4h-1.4v-1.9h1.4c0.7,0,1.3-0.1,1.8-0.4c0.5-0.2,0.9-0.6,1.2-1.1s0.4-1,0.4-1.6 s-0.1-1.1-0.4-1.5c-0.3-0.4-0.6-0.8-1.1-1s-1-0.4-1.7-0.4c-0.6,0-1.2,0.1-1.7,0.3c-0.5,0.2-1,0.5-1.3,0.9s-0.5,0.9-0.5,1.5h-2 c0-0.9,0.3-1.7,0.8-2.4s1.2-1.2,2-1.6s1.8-0.6,2.8-0.6c1.1,0,2,0.2,2.8,0.7c0.8,0.4,1.4,1,1.8,1.7c0.4,0.7,0.6,1.5,0.6,2.3 c0,1-0.3,1.8-0.8,2.5s-1.2,1.2-2.1,1.4v0.1c1.1,0.2,2,0.6,2.6,1.4s0.9,1.7,0.9,2.8c0,0.9-0.3,1.8-0.8,2.6 c-0.5,0.8-1.2,1.3-2.1,1.8S589.6,369.4,588.5,369.4z"></path> </g> </g> <path class="st3" d="M592,693.5c-0.6-2.6-1.5-4.3-2.5-6.2c-1.2-2.3-2.5-4.7-2.8-8.6c-0.3-3.7,0.2-10,0.6-14.5l0.2-2.3 c0.2-2.6,0.2-5.3,0-7.9c-0.1-1.7-0.3-3.4-1.1-4.8c-0.6-1.1-1.7-2.1-3-2.1l0,0c-1.5,0-2.9,1.3-4.5,4.1c-6.2,10.7-10.7,22.3-13.2,34.4 c-0.1,0.4-0.3,0.7-0.6,0.9l25.8,30.6C592.5,709.9,593.9,701.5,592,693.5z"></path> <path class="st4" d="M563.4,686.9c0.5,0.1,1-0.1,1.4-0.4c0.3-0.2,0.5-0.5,0.6-0.9c2.6-12.1,7-23.7,13.2-34.4c1.6-2.8,3-4.1,4.5-4.1 l0,0c1.3,0,2.4,1.1,3,2.1c0.8,1.4,1,3.1,1.1,4.8c0.2,2.6,0.2,5.3,0,7.9l-0.2,2.3c-0.4,4.6-0.9,10.8-0.6,14.5 c0.4,3.8,1.6,6.2,2.8,8.6c1,1.8,1.9,3.6,2.5,6.2c1.9,8,0.5,16.3-1.2,23.6c-0.1,0.4-0.2,0.8-0.3,1.2c-0.2,0.9,0.3,1.8,1.2,2 c0.1,0,0.3,0,0.4,0c0.7,0,1.4-0.5,1.6-1.3c1.9-7.9,3.6-17.2,1.5-26.3c-0.1-0.6-0.3-1.1-0.5-1.6c-0.4-1.2-0.8-2.2-1.2-3.1 c-0.4-0.8-0.8-1.6-1.1-2.3c-0.5-0.9-0.9-1.8-1.3-2.7c-0.4-0.9-0.7-2-0.9-3.1c-0.1-0.5-0.2-1-0.2-1.5c-0.3-3.4,0.2-9.8,0.6-13.9 l0.2-2.4c0.2-2.8,0.2-5.6,0-8.4c-0.1-2-0.4-4.2-1.5-6.1c-1.3-2.3-3.6-3.8-5.9-3.8l0,0c-3.6,0-5.9,3.3-7.3,5.7 c-2.8,4.8-5.2,9.7-7.2,14.8c-0.6,1.4-1.1,2.8-1.6,4.2c-0.7,1.9-1.4,3.8-2,5.8c-0.5,1.6-0.9,3.2-1.4,4.8c-0.5,2-1,3.9-1.4,5.9 C562,685.8,562.5,686.7,563.4,686.9z"></path> <g> <g> <path class="st4" d="M210.2,598.8l5.2,14.7h0.2l5.2-14.7h2.2l-6.4,17.5h-2.2l-6.4-17.5H210.2z"></path> <path class="st4" d="M230.9,616.5c-1.3,0-2.3-0.3-3.3-0.8c-0.9-0.6-1.6-1.3-2.1-2.4c-0.5-1-0.7-2.2-0.7-3.5s0.2-2.5,0.7-3.5 c0.5-1,1.2-1.8,2.1-2.4c0.9-0.6,1.9-0.9,3.1-0.9c0.7,0,1.4,0.1,2,0.3c0.7,0.2,1.3,0.6,1.8,1.1c0.5,0.5,1,1.2,1.3,2 c0.3,0.8,0.5,1.9,0.5,3.1v0.9h-10.1v-1.7h8c0-0.7-0.1-1.4-0.4-2c-0.3-0.6-0.7-1-1.2-1.4c-0.5-0.3-1.2-0.5-1.9-0.5 c-0.8,0-1.5,0.2-2.1,0.6c-0.6,0.4-1,0.9-1.3,1.5c-0.3,0.6-0.5,1.3-0.5,2v1.2c0,1,0.2,1.8,0.5,2.5s0.8,1.2,1.4,1.6 c0.6,0.4,1.3,0.5,2.1,0.5c0.5,0,1-0.1,1.4-0.2c0.4-0.2,0.8-0.4,1.1-0.7c0.3-0.3,0.6-0.7,0.7-1.1l1.9,0.5c-0.2,0.7-0.5,1.2-1,1.7 s-1.1,0.9-1.8,1.2C232.6,616.4,231.8,616.5,230.9,616.5z"></path> <path class="st4" d="M239.4,616.3v-13.1h1.9v2h0.1c0.2-0.6,0.7-1.2,1.3-1.6s1.3-0.6,2.1-0.6c0.1,0,0.3,0,0.6,0c0.2,0,0.4,0,0.5,0 v2c-0.1,0-0.2,0-0.5-0.1c-0.2,0-0.5-0.1-0.8-0.1c-0.6,0-1.2,0.1-1.7,0.4c-0.5,0.3-0.9,0.6-1.2,1.1c-0.3,0.5-0.4,1-0.4,1.6v8.3 H239.4z"></path> <path class="st4" d="M249.3,601c-0.4,0-0.7-0.1-1-0.4c-0.3-0.3-0.4-0.6-0.4-1s0.1-0.7,0.4-1c0.3-0.3,0.6-0.4,1-0.4s0.7,0.1,1,0.4 c0.3,0.3,0.4,0.6,0.4,1s-0.1,0.7-0.4,1C250.1,600.9,249.7,601,249.3,601z M248.3,616.3v-13.1h2v13.1H248.3z"></path> <path class="st4" d="M259.8,603.2v1.7h-7.1v-1.7H259.8z M254.9,616.3v-14.9c0-0.8,0.2-1.4,0.5-1.9c0.4-0.5,0.8-0.9,1.4-1.1 s1.2-0.4,1.8-0.4c0.5,0,0.9,0,1.2,0.1s0.5,0.2,0.7,0.2l-0.6,1.7c-0.1,0-0.2-0.1-0.4-0.1c-0.2-0.1-0.4-0.1-0.7-0.1 c-0.7,0-1.1,0.2-1.4,0.5c-0.3,0.3-0.4,0.8-0.4,1.5v14.4H254.9z"></path> <path class="st4" d="M263.7,601c-0.4,0-0.7-0.1-1-0.4c-0.3-0.3-0.4-0.6-0.4-1s0.1-0.7,0.4-1c0.3-0.3,0.6-0.4,1-0.4s0.7,0.1,1,0.4 c0.3,0.3,0.4,0.6,0.4,1s-0.1,0.7-0.4,1C264.4,600.9,264.1,601,263.7,601z M262.7,616.3v-13.1h2v13.1H262.7z"></path> <path class="st4" d="M273.7,616.5c-1.2,0-2.3-0.3-3.2-0.9c-0.9-0.6-1.6-1.4-2-2.4c-0.5-1-0.7-2.2-0.7-3.5c0-1.3,0.2-2.5,0.7-3.5 c0.5-1,1.2-1.8,2.1-2.4c0.9-0.6,1.9-0.9,3.1-0.9c0.9,0,1.8,0.2,2.5,0.5c0.7,0.3,1.3,0.8,1.8,1.4c0.5,0.6,0.8,1.3,0.9,2.1h-2 c-0.2-0.6-0.5-1.1-1-1.6s-1.2-0.7-2.1-0.7c-0.8,0-1.5,0.2-2.1,0.6c-0.6,0.4-1,1-1.4,1.7c-0.3,0.7-0.5,1.6-0.5,2.6 c0,1,0.2,1.9,0.5,2.6c0.3,0.8,0.8,1.3,1.4,1.7c0.6,0.4,1.3,0.6,2.1,0.6c0.5,0,1-0.1,1.4-0.3c0.4-0.2,0.8-0.4,1.1-0.8 s0.5-0.8,0.6-1.2h2c-0.1,0.8-0.4,1.5-0.8,2.1c-0.4,0.6-1,1.1-1.8,1.5S274.7,616.5,273.7,616.5z"></path> <path class="st4" d="M285.6,616.6c-0.8,0-1.6-0.2-2.3-0.5s-1.2-0.8-1.6-1.4c-0.4-0.6-0.6-1.3-0.6-2.2c0-0.8,0.1-1.4,0.4-1.8 s0.7-0.8,1.2-1.1c0.5-0.3,1-0.5,1.6-0.6c0.6-0.1,1.2-0.2,1.8-0.3c0.8-0.1,1.4-0.2,1.9-0.2c0.5-0.1,0.9-0.1,1.1-0.3 c0.2-0.1,0.3-0.4,0.3-0.7v-0.1c0-0.8-0.2-1.5-0.7-2s-1.1-0.7-2.1-0.7c-1,0-1.7,0.2-2.3,0.6c-0.5,0.4-0.9,0.9-1.2,1.3l-1.9-0.7 c0.3-0.8,0.8-1.4,1.4-1.9c0.6-0.4,1.2-0.8,1.9-0.9c0.7-0.2,1.3-0.3,2-0.3c0.4,0,0.9,0,1.5,0.1s1.1,0.3,1.6,0.6s0.9,0.8,1.3,1.4 c0.3,0.6,0.5,1.4,0.5,2.5v8.6h-2v-1.8h-0.1c-0.1,0.3-0.4,0.6-0.7,0.9c-0.3,0.3-0.7,0.6-1.3,0.8S286.4,616.6,285.6,616.6z M285.9,614.8c0.8,0,1.5-0.2,2-0.5s1-0.7,1.2-1.2s0.4-1,0.4-1.6v-1.8c-0.1,0.1-0.3,0.2-0.6,0.3c-0.3,0.1-0.6,0.2-1,0.2 s-0.7,0.1-1.1,0.2c-0.3,0-0.6,0.1-0.8,0.1c-0.5,0.1-1,0.2-1.5,0.3c-0.5,0.2-0.8,0.4-1.1,0.7c-0.3,0.3-0.4,0.7-0.4,1.2 c0,0.7,0.3,1.2,0.8,1.6C284.5,614.6,285.1,614.8,285.9,614.8z"></path> <path class="st4" d="M301,603.2v1.7h-6.8v-1.7H301z M296.2,600h2v12.5c0,0.6,0.1,1,0.3,1.3c0.2,0.3,0.4,0.5,0.6,0.6 s0.5,0.1,0.8,0.1c0.2,0,0.4,0,0.5,0c0.1,0,0.3,0,0.3-0.1l0.4,1.8c-0.1,0.1-0.3,0.1-0.6,0.2c-0.2,0.1-0.6,0.1-0.9,0.1 c-0.6,0-1.1-0.1-1.7-0.4s-1-0.6-1.3-1.1s-0.5-1.1-0.5-1.9V600z"></path> <path class="st4" d="M305.1,601c-0.4,0-0.7-0.1-1-0.4c-0.3-0.3-0.4-0.6-0.4-1s0.1-0.7,0.4-1c0.3-0.3,0.6-0.4,1-0.4s0.7,0.1,1,0.4 c0.3,0.3,0.4,0.6,0.4,1s-0.1,0.7-0.4,1C305.8,600.9,305.4,601,305.1,601z M304,616.3v-13.1h2v13.1H304z"></path> <path class="st4" d="M315,616.5c-1.2,0-2.2-0.3-3.1-0.8c-0.9-0.6-1.6-1.3-2.1-2.4c-0.5-1-0.7-2.2-0.7-3.5c0-1.4,0.2-2.6,0.7-3.6 c0.5-1,1.2-1.8,2.1-2.4c0.9-0.6,1.9-0.8,3.1-0.8c1.2,0,2.2,0.3,3.1,0.8s1.6,1.4,2.1,2.4c0.5,1,0.7,2.2,0.7,3.6 c0,1.4-0.2,2.5-0.7,3.5s-1.2,1.8-2.1,2.4S316.2,616.5,315,616.5z M315,614.7c0.9,0,1.6-0.2,2.2-0.7s1-1.1,1.3-1.8 c0.3-0.8,0.4-1.6,0.4-2.4s-0.1-1.7-0.4-2.4c-0.3-0.8-0.7-1.4-1.3-1.8s-1.3-0.7-2.2-0.7c-0.9,0-1.6,0.2-2.2,0.7s-1,1.1-1.3,1.8 c-0.3,0.8-0.4,1.6-0.4,2.4s0.1,1.7,0.4,2.4s0.7,1.4,1.3,1.8S314.1,614.7,315,614.7z"></path> <path class="st4" d="M326.1,608.4v7.9h-2v-13.1h1.9v2h0.2c0.3-0.7,0.8-1.2,1.4-1.6s1.4-0.6,2.4-0.6c0.9,0,1.7,0.2,2.3,0.5 c0.7,0.4,1.2,0.9,1.6,1.6c0.4,0.7,0.6,1.7,0.6,2.8v8.3h-2v-8.2c0-1-0.3-1.8-0.8-2.4c-0.5-0.6-1.3-0.9-2.2-0.9 c-0.6,0-1.2,0.1-1.7,0.4c-0.5,0.3-0.9,0.7-1.2,1.2C326.2,607,326.1,607.6,326.1,608.4z"></path> <path class="st4" d="M345.9,601c-0.4,0-0.7-0.1-1-0.4c-0.3-0.3-0.4-0.6-0.4-1s0.1-0.7,0.4-1c0.3-0.3,0.6-0.4,1-0.4s0.7,0.1,1,0.4 c0.3,0.3,0.4,0.6,0.4,1s-0.1,0.7-0.4,1C346.6,600.9,346.3,601,345.9,601z M344.8,616.3v-13.1h2v13.1H344.8z"></path> <path class="st4" d="M359.8,606.1l-1.8,0.5c-0.1-0.3-0.3-0.6-0.5-0.9c-0.2-0.3-0.5-0.5-0.9-0.7s-0.9-0.3-1.4-0.3 c-0.8,0-1.5,0.2-2,0.5c-0.5,0.4-0.8,0.8-0.8,1.4c0,0.5,0.2,0.9,0.5,1.2c0.4,0.3,0.9,0.5,1.7,0.7l1.9,0.5c1.2,0.3,2,0.7,2.6,1.3 c0.6,0.6,0.9,1.3,0.9,2.2c0,0.8-0.2,1.4-0.6,2c-0.4,0.6-1,1.1-1.8,1.4c-0.8,0.3-1.7,0.5-2.7,0.5c-1.3,0-2.4-0.3-3.3-0.9 c-0.9-0.6-1.4-1.4-1.7-2.5l1.9-0.5c0.2,0.7,0.5,1.2,1,1.6c0.5,0.4,1.2,0.5,2,0.5c0.9,0,1.7-0.2,2.2-0.6c0.6-0.4,0.8-0.9,0.8-1.4 c0-0.5-0.2-0.8-0.5-1.1s-0.8-0.5-1.5-0.7l-2.2-0.5c-1.2-0.3-2.1-0.7-2.6-1.3s-0.8-1.4-0.8-2.3c0-0.7,0.2-1.4,0.6-2s1-1,1.7-1.3 c0.7-0.3,1.5-0.5,2.5-0.5c1.3,0,2.3,0.3,3.1,0.9C359,604.4,359.5,605.2,359.8,606.1z"></path> <path class="st4" d="M375.1,616.5c-1.2,0-2.3-0.3-3.2-0.9c-0.9-0.6-1.6-1.4-2-2.4c-0.5-1-0.7-2.2-0.7-3.5c0-1.3,0.2-2.5,0.7-3.5 c0.5-1,1.2-1.8,2.1-2.4c0.9-0.6,1.9-0.9,3.1-0.9c0.9,0,1.8,0.2,2.5,0.5c0.7,0.3,1.3,0.8,1.8,1.4c0.5,0.6,0.8,1.3,0.9,2.1h-2 c-0.2-0.6-0.5-1.1-1-1.6s-1.2-0.7-2.1-0.7c-0.8,0-1.5,0.2-2.1,0.6c-0.6,0.4-1,1-1.4,1.7c-0.3,0.7-0.5,1.6-0.5,2.6 c0,1,0.2,1.9,0.5,2.6c0.3,0.8,0.8,1.3,1.4,1.7c0.6,0.4,1.3,0.6,2.1,0.6c0.5,0,1-0.1,1.4-0.3c0.4-0.2,0.8-0.4,1.1-0.8 s0.5-0.8,0.6-1.2h2c-0.1,0.8-0.4,1.5-0.8,2.1c-0.4,0.6-1,1.1-1.8,1.5S376.1,616.5,375.1,616.5z"></path> <path class="st4" d="M388.5,616.5c-1.2,0-2.2-0.3-3.1-0.8c-0.9-0.6-1.6-1.3-2.1-2.4c-0.5-1-0.7-2.2-0.7-3.5c0-1.4,0.2-2.6,0.7-3.6 c0.5-1,1.2-1.8,2.1-2.4c0.9-0.6,1.9-0.8,3.1-0.8c1.2,0,2.2,0.3,3.1,0.8s1.6,1.4,2.1,2.4c0.5,1,0.7,2.2,0.7,3.6 c0,1.4-0.2,2.5-0.7,3.5s-1.2,1.8-2.1,2.4S389.7,616.5,388.5,616.5z M388.5,614.7c0.9,0,1.6-0.2,2.2-0.7s1-1.1,1.3-1.8 c0.3-0.8,0.4-1.6,0.4-2.4s-0.1-1.7-0.4-2.4c-0.3-0.8-0.7-1.4-1.3-1.8s-1.3-0.7-2.2-0.7c-0.9,0-1.6,0.2-2.2,0.7s-1,1.1-1.3,1.8 c-0.3,0.8-0.4,1.6-0.4,2.4s0.1,1.7,0.4,2.4s0.7,1.4,1.3,1.8S387.6,614.7,388.5,614.7z"></path> <path class="st4" d="M397.5,616.3v-13.1h1.9v2h0.2c0.3-0.7,0.7-1.2,1.3-1.6c0.6-0.4,1.3-0.6,2.2-0.6c0.9,0,1.6,0.2,2.2,0.6 c0.6,0.4,1,0.9,1.4,1.6h0.1c0.3-0.7,0.8-1.2,1.5-1.6c0.7-0.4,1.5-0.6,2.4-0.6c1.2,0,2.1,0.4,2.9,1.1s1.1,1.9,1.1,3.4v8.8h-2v-8.8 c0-1-0.3-1.7-0.8-2.1c-0.5-0.4-1.2-0.6-1.9-0.6c-0.9,0-1.6,0.3-2.1,0.8c-0.5,0.6-0.8,1.3-0.8,2.1v8.5h-2v-9c0-0.7-0.2-1.3-0.7-1.8 c-0.5-0.5-1.1-0.7-1.9-0.7c-0.5,0-1,0.1-1.5,0.4c-0.5,0.3-0.8,0.7-1.1,1.2c-0.3,0.5-0.4,1.1-0.4,1.7v8.2H397.5z"></path> <path class="st4" d="M418.4,621.2v-18h1.9v2.1h0.2c0.1-0.2,0.4-0.5,0.6-0.9c0.3-0.4,0.6-0.7,1.1-1s1.2-0.4,2-0.4 c1.1,0,2.1,0.3,2.9,0.8s1.5,1.3,2,2.3s0.7,2.2,0.7,3.6c0,1.4-0.2,2.6-0.7,3.6c-0.5,1-1.1,1.8-2,2.4c-0.8,0.6-1.8,0.8-2.9,0.8 c-0.8,0-1.5-0.1-2-0.4s-0.9-0.6-1.2-1c-0.3-0.4-0.5-0.7-0.6-0.9h-0.2v6.9H418.4z M420.4,609.7c0,1,0.1,1.9,0.4,2.6 c0.3,0.8,0.7,1.3,1.3,1.8c0.6,0.4,1.2,0.6,2,0.6c0.8,0,1.5-0.2,2.1-0.7s1-1,1.3-1.8s0.4-1.6,0.4-2.5c0-0.9-0.1-1.8-0.4-2.5 c-0.3-0.7-0.7-1.3-1.3-1.8c-0.6-0.4-1.3-0.7-2.1-0.7c-0.8,0-1.5,0.2-2.1,0.6c-0.6,0.4-1,1-1.3,1.7 C420.5,607.9,420.4,608.8,420.4,609.7z"></path> <path class="st4" d="M435,598.8v17.5h-2v-17.5H435z"></path> <path class="st4" d="M444.2,616.5c-1.3,0-2.3-0.3-3.3-0.8c-0.9-0.6-1.6-1.3-2.1-2.4s-0.7-2.2-0.7-3.5s0.2-2.5,0.7-3.5 c0.5-1,1.2-1.8,2.1-2.4c0.9-0.6,1.9-0.9,3.1-0.9c0.7,0,1.4,0.1,2,0.3c0.7,0.2,1.3,0.6,1.8,1.1c0.5,0.5,1,1.2,1.3,2 c0.3,0.8,0.5,1.9,0.5,3.1v0.9h-10.1v-1.7h8c0-0.7-0.1-1.4-0.4-2c-0.3-0.6-0.7-1-1.2-1.4c-0.5-0.3-1.2-0.5-1.9-0.5 c-0.8,0-1.5,0.2-2.1,0.6c-0.6,0.4-1,0.9-1.3,1.5c-0.3,0.6-0.5,1.3-0.5,2v1.2c0,1,0.2,1.8,0.5,2.5s0.8,1.2,1.4,1.6 c0.6,0.4,1.3,0.5,2.1,0.5c0.5,0,1-0.1,1.4-0.2s0.8-0.4,1.1-0.7c0.3-0.3,0.6-0.7,0.7-1.1l1.9,0.5c-0.2,0.7-0.5,1.2-1,1.7 c-0.5,0.5-1.1,0.9-1.8,1.2S445.1,616.5,444.2,616.5z"></path> <path class="st4" d="M458.4,603.2v1.7h-6.8v-1.7H458.4z M453.6,600h2v12.5c0,0.6,0.1,1,0.3,1.3c0.2,0.3,0.4,0.5,0.6,0.6 c0.3,0.1,0.5,0.1,0.8,0.1c0.2,0,0.4,0,0.5,0c0.1,0,0.3,0,0.3-0.1l0.4,1.8c-0.1,0.1-0.3,0.1-0.6,0.2c-0.2,0.1-0.6,0.1-0.9,0.1 c-0.6,0-1.1-0.1-1.7-0.4c-0.5-0.2-1-0.6-1.3-1.1c-0.4-0.5-0.5-1.1-0.5-1.9V600z"></path> <path class="st4" d="M466.9,616.5c-1.3,0-2.3-0.3-3.3-0.8c-0.9-0.6-1.6-1.3-2.1-2.4s-0.7-2.2-0.7-3.5s0.2-2.5,0.7-3.5 c0.5-1,1.2-1.8,2.1-2.4c0.9-0.6,1.9-0.9,3.1-0.9c0.7,0,1.4,0.1,2,0.3c0.7,0.2,1.3,0.6,1.8,1.1c0.5,0.5,1,1.2,1.3,2 c0.3,0.8,0.5,1.9,0.5,3.1v0.9h-10.1v-1.7h8c0-0.7-0.1-1.4-0.4-2c-0.3-0.6-0.7-1-1.2-1.4c-0.5-0.3-1.2-0.5-1.9-0.5 c-0.8,0-1.5,0.2-2.1,0.6c-0.6,0.4-1,0.9-1.3,1.5c-0.3,0.6-0.5,1.3-0.5,2v1.2c0,1,0.2,1.8,0.5,2.5s0.8,1.2,1.4,1.6 c0.6,0.4,1.3,0.5,2.1,0.5c0.5,0,1-0.1,1.4-0.2s0.8-0.4,1.1-0.7c0.3-0.3,0.6-0.7,0.7-1.1l1.9,0.5c-0.2,0.7-0.5,1.2-1,1.7 c-0.5,0.5-1.1,0.9-1.8,1.2S467.8,616.5,466.9,616.5z"></path> <path class="st4" d="M210.2,629.8c-0.4,0-0.7-0.1-1-0.4c-0.3-0.3-0.4-0.6-0.4-1s0.1-0.7,0.4-1c0.3-0.3,0.6-0.4,1-0.4 s0.7,0.1,1,0.4c0.3,0.3,0.4,0.6,0.4,1s-0.1,0.7-0.4,1C210.9,629.7,210.6,629.8,210.2,629.8z M209.2,645.1V632h2v13.1H209.2z"></path> <path class="st4" d="M216.9,637.2v7.9h-2V632h1.9v2h0.2c0.3-0.7,0.8-1.2,1.4-1.6s1.4-0.6,2.4-0.6c0.9,0,1.7,0.2,2.3,0.5 c0.7,0.4,1.2,0.9,1.6,1.6c0.4,0.7,0.6,1.7,0.6,2.8v8.3h-2v-8.2c0-1-0.3-1.8-0.8-2.4c-0.5-0.6-1.3-0.9-2.2-0.9 c-0.6,0-1.2,0.1-1.7,0.4c-0.5,0.3-0.9,0.7-1.2,1.2C217,635.8,216.9,636.4,216.9,637.2z"></path> <path class="st4" d="M245,634.9l-1.8,0.5c-0.1-0.3-0.3-0.6-0.5-0.9c-0.2-0.3-0.5-0.5-0.9-0.7s-0.9-0.3-1.4-0.3 c-0.8,0-1.5,0.2-2,0.5c-0.5,0.4-0.8,0.8-0.8,1.4c0,0.5,0.2,0.9,0.5,1.2c0.4,0.3,0.9,0.5,1.7,0.7l1.9,0.5c1.2,0.3,2,0.7,2.6,1.3 c0.6,0.6,0.9,1.3,0.9,2.2c0,0.8-0.2,1.4-0.6,2c-0.4,0.6-1,1.1-1.8,1.4c-0.8,0.3-1.7,0.5-2.7,0.5c-1.3,0-2.4-0.3-3.3-0.9 c-0.9-0.6-1.4-1.4-1.7-2.5l1.9-0.5c0.2,0.7,0.5,1.2,1,1.6c0.5,0.4,1.2,0.5,2,0.5c0.9,0,1.7-0.2,2.2-0.6c0.6-0.4,0.8-0.9,0.8-1.4 c0-0.5-0.2-0.8-0.5-1.1s-0.8-0.5-1.5-0.7l-2.2-0.5c-1.2-0.3-2.1-0.7-2.6-1.3s-0.8-1.4-0.8-2.3c0-0.7,0.2-1.4,0.6-2s1-1,1.7-1.3 c0.7-0.3,1.5-0.5,2.5-0.5c1.3,0,2.3,0.3,3.1,0.9C244.1,633.2,244.6,634,245,634.9z"></path> <path class="st4" d="M253.7,645.3c-1.3,0-2.3-0.3-3.3-0.8c-0.9-0.6-1.6-1.3-2.1-2.4c-0.5-1-0.7-2.2-0.7-3.5s0.2-2.5,0.7-3.5 c0.5-1,1.2-1.8,2.1-2.4c0.9-0.6,1.9-0.9,3.1-0.9c0.7,0,1.4,0.1,2,0.3c0.7,0.2,1.3,0.6,1.8,1.1c0.5,0.5,1,1.2,1.3,2 c0.3,0.8,0.5,1.9,0.5,3.1v0.9H249v-1.7h8c0-0.7-0.1-1.4-0.4-2c-0.3-0.6-0.7-1-1.2-1.4c-0.5-0.3-1.2-0.5-1.9-0.5 c-0.8,0-1.5,0.2-2.1,0.6c-0.6,0.4-1,0.9-1.3,1.5c-0.3,0.6-0.5,1.3-0.5,2v1.2c0,1,0.2,1.8,0.5,2.5s0.8,1.2,1.4,1.6 c0.6,0.4,1.3,0.5,2.1,0.5c0.5,0,1-0.1,1.4-0.2c0.4-0.2,0.8-0.4,1.1-0.7c0.3-0.3,0.6-0.7,0.7-1.1l1.9,0.5c-0.2,0.7-0.5,1.2-1,1.7 s-1.1,0.9-1.8,1.2C255.4,645.2,254.6,645.3,253.7,645.3z"></path> <path class="st4" d="M267.5,645.3c-1.2,0-2.3-0.3-3.2-0.9c-0.9-0.6-1.6-1.4-2-2.4c-0.5-1-0.7-2.2-0.7-3.5c0-1.3,0.2-2.5,0.7-3.5 c0.5-1,1.2-1.8,2.1-2.4c0.9-0.6,1.9-0.9,3.1-0.9c0.9,0,1.8,0.2,2.5,0.5c0.7,0.3,1.3,0.8,1.8,1.4c0.5,0.6,0.8,1.3,0.9,2.1h-2 c-0.2-0.6-0.5-1.1-1-1.6s-1.2-0.7-2.1-0.7c-0.8,0-1.5,0.2-2.1,0.6c-0.6,0.4-1,1-1.4,1.7c-0.3,0.7-0.5,1.6-0.5,2.6 c0,1,0.2,1.9,0.5,2.6c0.3,0.8,0.8,1.3,1.4,1.7c0.6,0.4,1.3,0.6,2.1,0.6c0.5,0,1-0.1,1.4-0.3c0.4-0.2,0.8-0.4,1.1-0.8 s0.5-0.8,0.6-1.2h2c-0.1,0.8-0.4,1.5-0.8,2.1c-0.4,0.6-1,1.1-1.8,1.5S268.5,645.3,267.5,645.3z"></path> <path class="st4" d="M280.9,645.3c-1.2,0-2.2-0.3-3.1-0.8c-0.9-0.6-1.6-1.3-2.1-2.4c-0.5-1-0.7-2.2-0.7-3.5c0-1.4,0.2-2.6,0.7-3.6 c0.5-1,1.2-1.8,2.1-2.4c0.9-0.6,1.9-0.8,3.1-0.8c1.2,0,2.2,0.3,3.1,0.8s1.6,1.4,2.1,2.4c0.5,1,0.7,2.2,0.7,3.6 c0,1.4-0.2,2.5-0.7,3.5s-1.2,1.8-2.1,2.4S282.1,645.3,280.9,645.3z M280.9,643.5c0.9,0,1.6-0.2,2.2-0.7s1-1.1,1.3-1.8 c0.3-0.8,0.4-1.6,0.4-2.4s-0.1-1.7-0.4-2.4c-0.3-0.8-0.7-1.4-1.3-1.8s-1.3-0.7-2.2-0.7c-0.9,0-1.6,0.2-2.2,0.7s-1,1.1-1.3,1.8 c-0.3,0.8-0.4,1.6-0.4,2.4s0.1,1.7,0.4,2.4s0.7,1.4,1.3,1.8S280,643.5,280.9,643.5z"></path> <path class="st4" d="M291.9,637.2v7.9h-2V632h1.9v2h0.2c0.3-0.7,0.8-1.2,1.4-1.6s1.4-0.6,2.4-0.6c0.9,0,1.7,0.2,2.3,0.5 c0.7,0.4,1.2,0.9,1.6,1.6c0.4,0.7,0.6,1.7,0.6,2.8v8.3h-2v-8.2c0-1-0.3-1.8-0.8-2.4c-0.5-0.6-1.3-0.9-2.2-0.9 c-0.6,0-1.2,0.1-1.7,0.4c-0.5,0.3-0.9,0.7-1.2,1.2C292.1,635.8,291.9,636.4,291.9,637.2z"></path> <path class="st4" d="M308.9,645.3c-1.1,0-2.1-0.3-2.9-0.8c-0.8-0.6-1.5-1.3-2-2.4c-0.5-1-0.7-2.2-0.7-3.6c0-1.4,0.2-2.6,0.7-3.6 s1.1-1.8,2-2.3s1.8-0.8,2.9-0.8c0.9,0,1.5,0.1,2,0.4s0.9,0.6,1.1,1s0.5,0.6,0.6,0.9h0.2v-6.4h2v17.5H313v-2h-0.2 c-0.1,0.2-0.4,0.5-0.6,0.9c-0.3,0.4-0.7,0.7-1.2,1C310.4,645.2,309.7,645.3,308.9,645.3z M309.2,643.5c0.8,0,1.5-0.2,2-0.6 c0.6-0.4,1-1,1.3-1.8c0.3-0.8,0.4-1.6,0.4-2.6c0-1-0.1-1.8-0.4-2.6c-0.3-0.7-0.7-1.3-1.3-1.7c-0.6-0.4-1.2-0.6-2.1-0.6 c-0.9,0-1.6,0.2-2.1,0.7s-1,1-1.3,1.8c-0.3,0.7-0.4,1.6-0.4,2.5c0,0.9,0.1,1.8,0.4,2.5s0.7,1.4,1.3,1.8S308.3,643.5,309.2,643.5z"></path> <path class="st4" d="M328.1,634.9l-1.8,0.5c-0.1-0.3-0.3-0.6-0.5-0.9c-0.2-0.3-0.5-0.5-0.9-0.7s-0.9-0.3-1.4-0.3 c-0.8,0-1.5,0.2-2,0.5c-0.5,0.4-0.8,0.8-0.8,1.4c0,0.5,0.2,0.9,0.5,1.2c0.4,0.3,0.9,0.5,1.7,0.7l1.9,0.5c1.2,0.3,2,0.7,2.6,1.3 c0.6,0.6,0.9,1.3,0.9,2.2c0,0.8-0.2,1.4-0.6,2c-0.4,0.6-1,1.1-1.8,1.4c-0.8,0.3-1.7,0.5-2.7,0.5c-1.3,0-2.4-0.3-3.3-0.9 c-0.9-0.6-1.4-1.4-1.7-2.5l1.9-0.5c0.2,0.7,0.5,1.2,1,1.6c0.5,0.4,1.2,0.5,2,0.5c0.9,0,1.7-0.2,2.2-0.6c0.6-0.4,0.8-0.9,0.8-1.4 c0-0.5-0.2-0.8-0.5-1.1s-0.8-0.5-1.5-0.7l-2.2-0.5c-1.2-0.3-2.1-0.7-2.6-1.3s-0.8-1.4-0.8-2.3c0-0.7,0.2-1.4,0.6-2s1-1,1.7-1.3 c0.7-0.3,1.5-0.5,2.5-0.5c1.3,0,2.3,0.3,3.1,0.9C327.3,633.2,327.8,634,328.1,634.9z"></path> </g> </g> <line class="st14" x1="338.6" y1="638.3" x2="544.7" y2="638.3"></line> </svg> 