<svg width="512" height="512" viewBox="0 0 512 512" fill="none" xmlns="http://www.w3.org/2000/svg">
  <defs>
    <linearGradient id="ai-face" x1="128" y1="124" x2="384" y2="404" gradientUnits="userSpaceOnUse">
      <stop offset="0" stop-color="#DDFE75"/>
      <stop offset="0.55" stop-color="#FFE05C"/>
      <stop offset="1" stop-color="#FFB22E"/>
    </linearGradient>
    <linearGradient id="ai-glow" x1="182" y1="92" x2="352" y2="214" gradientUnits="userSpaceOnUse">
      <stop stop-color="#F7FFD7"/>
      <stop offset="1" stop-color="#FFFFFF" stop-opacity="0"/>
    </linearGradient>
  </defs>

  <circle cx="256" cy="256" r="164" fill="url(#ai-face)"/>
  <circle cx="256" cy="256" r="164" stroke="#202327" stroke-width="18"/>
  <path d="M161 174C192 122 284 110 342 157" stroke="url(#ai-glow)" stroke-width="32" stroke-linecap="round" opacity="0.85"/>

  <path d="M155 219C171 196 203 197 218 220" stroke="#202327" stroke-width="15" stroke-linecap="round"/>
  <path d="M294 220C311 197 345 197 361 222" stroke="#202327" stroke-width="15" stroke-linecap="round"/>

  <circle cx="187" cy="240" r="34" fill="#F7FFD7" stroke="#202327" stroke-width="14"/>
  <circle cx="326" cy="240" r="34" fill="#F7FFD7" stroke="#202327" stroke-width="14"/>
  <path d="M221 239C239 229 268 229 291 239" stroke="#202327" stroke-width="13" stroke-linecap="round"/>

  <path d="M188 241C199 255 215 263 234 262" stroke="#202327" stroke-width="12" stroke-linecap="round"/>
  <path d="M326 241C314 255 299 263 279 262" stroke="#202327" stroke-width="12" stroke-linecap="round"/>

  <path d="M186 314C212 352 280 370 325 315" stroke="#202327" stroke-width="16" stroke-linecap="round"/>
  <path d="M260 346C270 375 303 381 315 351C299 356 279 354 260 346Z" fill="#FF6B8B" stroke="#202327" stroke-width="12" stroke-linejoin="round"/>

  <path d="M147 116L125 69L174 94" stroke="#202327" stroke-width="16" stroke-linecap="round" stroke-linejoin="round"/>
  <path d="M360 116L387 71L403 124" stroke="#202327" stroke-width="16" stroke-linecap="round" stroke-linejoin="round"/>

  <path d="M124 333L92 360" stroke="#202327" stroke-width="14" stroke-linecap="round"/>
  <path d="M106 322L73 322" stroke="#202327" stroke-width="14" stroke-linecap="round"/>
  <path d="M389 330L423 356" stroke="#202327" stroke-width="14" stroke-linecap="round"/>
  <path d="M405 315L439 311" stroke="#202327" stroke-width="14" stroke-linecap="round"/>

  <path d="M412 164L428 164M420 156L420 172" stroke="#202327" stroke-width="12" stroke-linecap="round"/>
  <path d="M91 174L109 174M100 165L100 183" stroke="#202327" stroke-width="12" stroke-linecap="round"/>
  <circle cx="395" cy="203" r="8" fill="#EF3B3B"/>
</svg>
